<svg viewBox="0 0 575 575" class="roots-wrapper"><g transform="rotate(0 0 0)"><svg viewBoxSize="575" data-root-id="2400675806236" xmlns="http://www.w3.org/2000/svg" id="Layer_1" viewBox="458.41180419921875 207.84999084472656 697.9476928710938 466.92010498046875" height="240.74409087372254" width="359.825462794474" y="132.187" x="107.587" preserveAspectRatio="xMinYMin" zoom="1" editorType="buyer" data-layer-role="icon" style="position: absolute; height: 240.744px; width: 359.825px; top: 132.187px; left: 107.587px;"><path class="cls-1" d="M656.72,407.3c.11,.19,.23,.37,.36,.54,.08-.36,.17-.71,.25-1.07,.56,.49,1.35,.9,1.6,1.49,.14,.33-.03,.77-.2,1.2,2.08,1.44,4.87,1.7,7.24,.42,2.52-1.35,5.07-2.66,7.63-3.94-1.32-.3-1.47-.97-1.69-2.81-.12-.07-.25-.16-.37-.23,0-.15-.01-.29-.02-.43-2.16-2.64-4.37-5.33-7.53-9.18,3.05-2.75,5.95-5.36,8.65-7.8,6.48,4.97,11.74,9.01,16.99,13.04,7.57-3.23,15.28-6.14,23.11-8.73-2.21-1.74-4.42-3.48-6.63-5.21,.45-.66,.9-1.33,1.36-1.99,2.84,2.05,5.67,4.1,8.51,6.15,24.48-7.79,50.07-12.43,76.29-13.72,3.7-.18,6.6-3.23,6.6-6.93v-26.54c-1.03-.56-2.06-1.13-3.09-1.69,.44-.65,.87-1.29,1.31-1.94,.59,.52,1.18,1.04,1.78,1.56v-3.57c0-5.73-4.82-10.24-10.54-9.94-7.05,.38-14.05,.97-20.98,1.76,1.97,1.61,3.94,3.23,5.91,4.84-.44,.51-.88,1.01-1.32,1.52-1.92-1.85-3.84-3.71-5.76-5.57,.21-.24,.43-.49,.64-.73-21.49,2.48-42.38,6.91-62.5,13.11l.1,.26-.29-.21c-2.03,.63-4.05,1.28-6.06,1.94,.06,.04,.13,.07,.19,.11,.61,.43,.68,1.68,1.19,3.1-1.72-.41-3.01-.37-3.74-1.01-.29-.25-.36-.74-.39-1.29-6.18,2.09-12.27,4.35-18.29,6.77,.17,.08,.34,.16,.51,.24-.18,.29-.36,.58-.53,.87l-.86-.75c-8.45,3.43-16.74,7.18-24.84,11.23,2.88,4.43,5.05,7.77,7.28,11.19-4.71,.26-8.14-3.69-8.63-10.51-1.88,.95-3.74,1.91-5.6,2.89-5.03,2.66-6.84,8.98-3.94,13.88l16.33,27.64Zm139.41-44.57c.18,.24,.52,.5,.51,.73-.01,.23-.37,.42-.57,.63-.18-.25-.52-.5-.51-.73,.01-.23,.37-.42,.57-.63Zm-1.48,4.88c.09,1.6,.19,3.19,.28,4.78-.3,0-.6,.02-.9,.03-.09-1.59-.19-3.19-.28-4.78,.3,0,.6-.02,.9-.03Zm-16.65-17.9c.08,.34,.21,.68,.22,1.02,0,.11-.32,.21-.49,.31-.08-.34-.22-.68-.22-1.01,0-.11,.32-.21,.5-.31Zm-4.42-7.74c.66,1.48,1.32,2.96,1.99,4.44-.86,.23-1.72,.46-2.58,.69-.41-1.56-.81-3.12-1.22-4.67,.6-.15,1.21-.3,1.81-.46Zm-4.89,21.9c.49,.84,.66,1.85,.96,2.83-1.13,.13-1.82,.21-2.51,.28-.12-1.01-.32-2.04-.27-3.03,0-.15,1.68-.32,1.81-.09Zm-19.02-25.16c.1,.1,.2,.2,.3,.29-.09-.31-.17-.62-.26-.93,.34,.1,.86,.11,.97,.31,.3,.56,.43,1.2,.63,1.81-.34-.06-.9-.04-.99-.21-.05-.1-.09-.21-.13-.31-.41,.43-.81,.85-1.22,1.28-.15-.27-.49-.67-.43-.78,.32-.53,.74-.99,1.12-1.47Zm4.32,40.12q-12.71-2.65-17.1-11.26c14.8,.16,15.95,.96,17.1,11.26Zm-23.92-41.2l.08,.63-.55-.38,.48-.26Zm-4.95,31.46l-.31,.56-.36-.52,.67-.04Zm-6.97-23.79c.1,.1,.2,.21,.3,.32,.56,.02,1.12,.04,1.68,.06-.13,.43-.27,.86-.4,1.29-.43-.45-.85-.9-1.28-1.35-.12,0-.24,0-.36-.01l-.6-.13,.66-.18Zm-19.08,6.64c.28,.1,.69,.12,.81,.31,.11,.19-.07,.53-.12,.81-.28-.1-.69-.12-.81-.31-.11-.19,.07-.53,.12-.81Zm-10.14,24.86c1.69,2.06,3.39,4.13,5.08,6.19-.44,.32-.89,.64-1.33,.96-1.57-2.13-3.15-4.26-4.72-6.4,.32-.25,.65-.51,.97-.76Zm-5.57-12.95c.58-.23,1.24-.29,1.8-.4,0,.33,.12,.91-.03,.98-.54,.24-1.18,.3-1.78,.43,0-.35-.13-.95,0-1.01Zm-.83,8.77c-3.25-.71-6.02-1.32-11.01-2.41,6.35-5.24,9.01-3.85,11.01,2.41Zm-22.45-10.4c.87,1.07,1.75,2.13,2.62,3.2-.25,.2-.51,.39-.76,.59-.87-1.07-1.75-2.13-2.62-3.2,.25-.2,.51-.39,.76-.59Zm-2.14,30.93c.22-.14,.57-.07,.86-.1-.15,.25-.24,.59-.47,.73-.21,.13-.56,.07-.85,.09,.15-.25,.23-.58,.45-.72Z" name="Layer %{number}" zoom="1" data-layer-id="7812765206236" style="fill: rgb(255, 255, 255); fill-opacity: 1;"></path><path class="cls-1" d="M505.5,644.94c1.25-.18,2.31-.25,3.21-.24,.45-4.51,.99-9,1.64-13.47-.57-.31-1.14-.62-1.69-.95,0,.09-.01,.19-.02,.27-.11-.07-.23-.16-.34-.23-2.3,1.86,.47,8.77-6.07,6.94,.36-3.18,.72-6.28,1.18-10.33,2.16,1.5,3.54,2.46,4.89,3.39,.05-.04,.08-.12,.14-.16,.07,.04,.15,.08,.22,.13,.07-.78,.06-1.85,.33-1.95,.58-.21,1.21-.33,1.87-.35,.27-1.73,.54-3.46,.84-5.19-2.97-.23-5.31-.41-7.82-.6,3.62-5.7,4.23-6.63,8.36-2.32,2.89-15.74,7.01-31.14,12.34-46.1-3.32-.81-3.46-2.19-4.32-10.58,2.08,3.45,3.62,5.99,5.09,8.44,.92-2.51,1.87-5,2.85-7.48-.18-.14-.37-.28-.53-.45-.15-.16,.06-.66,.1-1.01,.26,.18,.53,.36,.79,.54,1.44-3.61,2.94-7.2,4.52-10.75,1.51-3.38,.1-7.34-3.2-9.01l-29.92-15.17c-4.35-2.2-9.68-.35-11.67,4.1-17.28,38.65-27.75,81-29.86,125.56-.43,9.14,6.84,16.8,16,16.8h25.93c3.77,0,6.85-3.01,6.93-6.78,.15-6.67,.53-13.3,1.11-19.89-.86-.93-1.81-1.96-2.91-3.14Zm-33.47,25.18c-.18-.34-.58-.76-.51-1.01,.2-.67,.6-1.26,.92-1.88,.21,.33,.42,.65,.63,.98-.34,.64-.69,1.27-1.04,1.91Zm23.8-90.43c.61,.23,1.76,.49,1.75,.69-.08,1.92-.35,3.83-.57,5.74-.89-.2-1.79-.4-2.68-.59,.5-1.95,1-3.89,1.5-5.84Zm-6.15,87.42c-.14-.69-.33-1.37-.36-2.06,0-.15,.56-.33,.87-.5,.12,.66,.31,1.31,.31,1.97,0,.2-.53,.39-.81,.59Zm5.22-8.37l.37-.55,.12,.67-.49-.12Zm.54-7.04c-.5-.37-1.25-.64-1.42-1.15-.13-.39,.48-1.09,.76-1.65,.51,.36,1.29,.63,1.43,1.13,.12,.42-.49,1.11-.78,1.68Zm2.6-32.39c-.9,3.03-1.13,7.37-6.67,4.51,2.04-2.53,3.6-4.47,5.52-6.85,.63,1.22,1.28,1.92,1.16,2.34Zm6.26,35.52c-.04-.37-.13-.75-.08-1.1,.01-.1,.45-.12,.69-.18,.04,.37,.13,.75,.08,1.1-.01,.1-.45,.12-.7,.18Z" name="Layer %{number}" zoom="1" data-layer-id="7781182506236" style="fill: rgb(255, 255, 255); fill-opacity: 1;"></path><path class="cls-1" d="M988.52,391.03c-.38,1.53-1.12,3.11-1.33,4.61,.04,.71,.08,1.41,.13,2.12-.25-.67-.23-1.39-.13-2.12-.06-.93-.11-1.87-.17-2.8-.25,.35-.5,.71-.72,1.09l-13.36,22.62c-1.87,3.16-.95,7.22,2.09,9.27,4.13,2.79,8.2,5.7,12.2,8.71,.03-.05,.06-.1,.08-.14,.46,.35,1.29,.71,1.28,1.05,0,.04-.02,.09-.02,.13,10.82,8.23,21.17,17.22,30.94,27,20.8,20.8,38.15,44.12,51.81,69.26,1.78,3.27,5.81,4.56,9.16,2.92l23.69-11.64c7.96-3.91,10.97-13.74,6.57-21.44-2.42-4.23-4.96-8.4-7.55-12.52-.04,.12-.08,.24-.13,.37-.53-.43-1.56-.94-1.51-1.28,.06-.42,.16-.83,.28-1.24-24.51-38.37-56.3-71.63-93.44-97.83-6.31-4.45-14.73-3.43-19.87,1.87Zm8.73,9.57c1.27-4.63,2.55-9.25,3.82-13.88,.85,.25,1.69,.5,2.54,.76,1.02,5.72,1.21,11.08-6.36,13.12Zm91.77,126.32c.24-.04,.98,1.55,.88,1.65-.66,.7-1.5,1.19-2.27,1.75-.28-.63-.56-1.26-1.05-2.34,.83-.39,1.61-.93,2.44-1.06Zm-11.21-6.26c.1,.72,.29,1.44,.27,2.16,0,.28-.49,.55-.76,.82-.27-.6-.54-1.2-.81-1.81,.43-.39,.86-.79,1.3-1.18Zm-18.08-48.72c-.72,.44-1.44,.88-2.16,1.31-.06-1.52-.12-3.03-.19-4.55,.78,1.08,1.56,2.16,2.34,3.23Zm-30.32-20.87c-1.52,2.43-3.04,4.85-5.81,9.26-1.35-7.68,2.37-8.35,5.81-9.26Zm-8.08-38.84c.68,1.17,1.61,2.26,1.94,3.53,.17,.65-.73,1.6-1.75,3.6-.93-2.38-1.71-3.62-1.79-4.88-.05-.73,1.03-1.5,1.6-2.25Zm-2.05,15.81c-.07,.24-.44,.36-.68,.53-.2-.28-.4-.56-.6-.84,.38-.24,.77-.48,1.15-.72,.05,.35,.21,.74,.12,1.04Zm-1.49-31.66c.52,.38,1.43,.72,1.45,1.13,.05,.66-.5,1.37-.8,2.06-.53-.48-1.28-.86-1.5-1.48-.14-.39,.53-1.13,.84-1.71Zm-1.42-.5c.16,.1,.45,.19,.46,.29,.02,.3-.08,.59-.13,.89-.17-.1-.47-.19-.48-.29-.01-.3,.09-.6,.15-.9Z" name="Layer %{number}" zoom="1" data-layer-id="6457804606236" style="fill: rgb(255, 255, 255); fill-opacity: 1;"></path><path class="cls-1" d="M671.9,403.14c.99,.61,2,1.24,3.28,2.03,.62-.3,1.23-.61,1.85-.91,.3-.71,.61-1.42,.94-2.11,.03-.06,1.65,.72,1.64,.77-.01,.05-.03,.09-.05,.14,2.58-1.22,5.18-2.4,7.8-3.54-5.48-3.23-10.96-6.44-16.29-9.58,.14,3.83,.29,8.18,.44,12.55,.12,.14,.23,.29,.35,.43,.01,.1,.03,.14,.04,.23Z" name="Layer %{number}" zoom="1" data-layer-id="9243903506236" style="fill: rgb(183, 29, 29); fill-opacity: 1;"></path><path class="cls-1" d="M960.23,408.56l14.86-25.17c3.68-6.24,1.44-14.32-4.97-17.7-3.27-1.73-6.57-3.39-9.9-5.02-.18,.03-.36,.07-.54,.1-.07-.16-.15-.32-.22-.47-1.63-.79-3.26-1.57-4.9-2.33,.49,1.01,1,2.06,1.56,3.21-3.85,.12-6.51,.2-10.42,.32-.92-2.63-1.98-5.67-3.08-8.82-11.32-4.76-22.95-8.95-34.84-12.51-.45,.66-1.02,1.35-1.7,2.08-.1-.89-.2-1.79-.31-2.68-2.17-.64-4.34-1.25-6.53-1.84,.42,2.18,.27,4.29-2.19,6.07-3.49-3.35-4.63-5.43-3.33-7.53-21.43-5.46-43.65-8.93-66.46-10.22-5.21-.29-9.82,2.61-12.03,6.96,.07,.32,.15,.65,.22,.97-.27,.12-.54,.25-.81,.37-.51,1.38-.8,2.86-.8,4.41v10.07c.49,.31,1.07,.67,1.77,1.07-.72,.35-1.29,.67-1.77,.94v17.17c0,3.72,2.93,6.77,6.64,6.93,1.56,.07,3.12,.15,4.68,.24,.07-.1,.17-.21,.24-.31,.15,.12,.31,.23,.46,.35,3.84,.23,7.66,.53,11.47,.91-1.57-1.91-3.03-3.69-4.59-5.6,2.69-.66,5.24-1.28,7.93-1.94,.28,1.29,.59,2.72,.9,4.16l.1-.24c.6,.74,1.2,1.47,1.8,2.21h0c-.1,.02-.2,.04-.3,.06-.02,.64-.04,1.29-.06,1.99,5.12,.6,10.21,1.34,15.26,2.2-.28-.54-.47-1.13-.73-1.76,.61,.17,1.41,.17,1.67,.52,.27,.37,.26,.92,.28,1.44,14.34,2.51,28.4,6.04,42.11,10.57,.01-1.21,.03-2.42,.04-3.63,.56-.04,1.12-.07,1.68-.11,.16,1.49,.32,2.98,.48,4.46,16.23,5.5,31.95,12.39,47.01,20.62,3.28,1.8,7.4,.67,9.3-2.56Zm14.22-28.53l.23,3.9c-.23,0-.46,.02-.69,.02-.08-1.3-.15-2.6-.23-3.9,.23,0,.46-.02,.69-.02Zm-155.48-38.53c-.79-.02-1.58-.04-2.36-.06-.17-2.92-.34-5.84-.52-8.76,1.03,0,2.06,0,3.09,0-.07,2.94-.14,5.89-.21,8.83Zm9.13,14.62c-1.86-4.24-3.72-8.49-5.58-12.73,.78-.27,1.56-.53,2.34-.8,1.96,4.2,3.92,8.4,5.87,12.6-.88,.31-1.76,.62-2.63,.93Zm15.84,8.24l.38-.8,.3,.87-.68-.07Zm8.55-6.37l.2-.78,.14,.82-.35-.04Zm-1.82-20.04c-.62,.09-1.41-.98-2.12-1.54,.63-.68,1.17-1.73,1.91-1.92,.67-.17,1.56,.62,2.86,1.23-1.2,1.07-1.86,2.11-2.66,2.23Zm3.96,33.11c-.51-.39-1.3-.72-1.44-1.18-.17-.55,.23-1.21,.38-1.82,.57,.45,1.37,.82,1.64,1.39,.19,.4-.36,1.06-.58,1.61Zm7.29,7.14c-.19,.47-1.09,.56-1.67,.82-.26-.64-.52-1.27-.78-1.9,.64-.3,1.28-.6,1.92-.9,.21,.68,.73,1.52,.54,1.98Zm9.86-21.59c-1.08-1.01-2.16-2.02-3.25-3.04,.32-.32,.65-.65,.97-.97,1.03,1.06,2.06,2.13,3.09,3.19-.27,.27-.54,.54-.81,.81Zm-.51-15.16c.98-2.1,4.19-2.86,6.08-3.99-1.09,3.92-2.02,7.27-3.91,14.06-1.2-4.97-2.99-8.3-2.17-10.07Zm5.76,35.58c-.7-.97-1.42-1.93-2.09-2.92-.06-.09,.27-.4,.43-.61,.93,.85,1.87,1.7,2.8,2.56-.38,.33-.76,.65-1.14,.98Zm1.49-16.06c-1.03-1.11-2.25-1.86-2.26-2.58,0-.81,1.08-1.59,1.7-2.38,.62,.63,1.67,1.22,1.75,1.92,.1,.82-.63,1.73-1.19,3.05Zm4.94,13.89c-.31-.23-.11-1.17-.21-3.19,1.5,2.25,2.3,3.45,3.1,4.65-.98-.46-2.04-.81-2.89-1.45Zm5.56-32.04c-.04-.99-.07-1.99-.11-2.98,.64,.11,1.65,.02,1.86,.36,.48,.79,.57,1.78,.86,2.81-1.23-.09-1.92-.14-2.61-.2Zm3.06,38.86l.42-.79,.29,.33-.71,.47Zm7.14-26.84c-.51-1.59-1.02-3.18-1.54-4.77,.63-.22,1.75-.73,1.81-.61,.74,1.43,1.31,2.96,1.93,4.47-.74,.31-1.47,.61-2.21,.92Zm8.39,17.6c-.07-1.2-.14-2.41-.21-3.61,.28,0,.57-.02,.85-.03,.07,1.2,.14,2.41,.21,3.61-.28,0-.57,.02-.85,.03Zm12.57,5.38c-.09-.3-.18-.6-.26-.9,.12-.29,.25-.57,.37-.86,.16,.43,.36,.86,.45,1.31,.02,.1-.37,.29-.56,.44Zm2.98,12.66c-.16-.67-.39-1.34-.44-2.03-.01-.18,.5-.41,.77-.62,.21,.28,.63,.65,.58,.82-.22,.64-.59,1.22-.91,1.83Zm7.99,8c-.08-.09-.15-.19-.23-.28l-.41-.12,.13-.22c-1.39-1.69-2.77-3.38-4.16-5.07,.21-.16,.42-.32,.63-.48,1.55,1.9,3.11,3.79,4.66,5.69-.21,.16-.42,.32-.63,.48Zm2.34-6.03c1.62,3.63,3.01,6.75,4.4,9.87-2.93-2.28-6.75-4.06-4.4-9.87Zm5.83-11.47c-.34-.47-.88-.91-.88-1.32,0-.51,.46-.99,.72-1.49,.2,.28,.59,.58,.58,.84-.04,.64-.25,1.27-.42,1.98Zm2.94-4.47l-.53-.51,.69-.16-.16,.68Zm7.51-1c.58-.08,1.17-.23,1.74-.17,.19,.02,.55,.78,.48,.88-.3,.42-.73,.71-1.12,1.05-.37-.58-.74-1.17-1.11-1.76Z" name="Layer %{number}" zoom="1" data-layer-id="6359314306236" style="fill: rgb(255, 255, 255); fill-opacity: 1;"></path><path class="cls-1" d="M510.64,516.89l26,13.18c3.31,1.68,7.35,.45,9.18-2.78,13.25-23.42,29.77-45.18,49.31-64.73,12.08-12.08,25.01-22.98,38.66-32.69-.28-.94-.55-1.87-.83-2.81,.62-.18,1.24-.37,1.85-.55,.33,.64,.66,1.28,.98,1.92,1.97-1.38,3.96-2.74,5.96-4.07,3.07-2.04,4.01-6.13,2.13-9.3l-14.82-25.1c-3.37-5.71-10.46-7.78-16.27-5.1-.4,.94-.81,1.88-1.21,2.83,.03,.1,.06,.2,.09,.3,.02,.08,.04,.11,.06,.19,1.92,1.73,3.84,3.46,5.89,5.31-4.57-.79-4.65-.86-5.89-5.31-.08-.08-.17-.16-.26-.23,.04-.09,.07-.17,.11-.26l-.55-1.85s-.06,.03-.09,.05c-1.88,1.28-3.74,2.58-5.59,3.9,.04,.26,.08,.54,.13,.84-.27-.14-.54-.26-.79-.37-9.4,6.71-18.46,13.87-27.13,21.46,.04,.06,.07,.12,.1,.19-.14,.03-.28,.06-.42,.09-12.09,10.59-23.43,22.01-33.96,34.15,.12,.09,.24,.19,.36,.28,.1-.03,.2-.06,.3-.09,.2,.22,.41,.44,.61,.66,1.51,.84,3.02,1.68,4.53,2.51-.34,.43-.68,.85-1.02,1.28-1.17-1.26-2.34-2.53-3.51-3.79-.21-.12-.42-.23-.63-.35-.09-.07-.19-.14-.28-.22-.27,.09-.55,.17-.82,.26-14.02,16.25-26.57,33.8-37.44,52.45-3.69,6.32-1.26,14.45,5.27,17.76Zm126.09-100.56c.9,1.1,1.8,2.2,2.7,3.29-.19,.15-.39,.3-.58,.45-.9-1.1-1.8-2.2-2.7-3.29,.19-.15,.39-.3,.58-.45Zm-9.68-24.48c.75,.98,1.79,1.85,2.14,2.99,.19,.62-.79,1.68-1.5,3.02-.86-1.37-1.8-2.23-1.86-3.16-.06-.91,.78-1.9,1.22-2.85Zm-9.78,21.74c-7.53-2.62-6.8-6.97-7.28-10.67,1.96,2.87,3.92,5.74,7.28,10.67Zm-11.12,5.86c2.7,1,5.75,1.52,7.95,3.22,.97,.75,1.09,4.69,.08,5.75-2.34,2.46-2.32-1.15-3.45-2.19-1.73-1.59-3.78-2.81-5.69-4.19,.37-.86,.74-1.72,1.11-2.59Zm.1,19.51c-.18,1.55-.35,3.11-.53,4.66-.34,.02-.68,.05-1.02,.07-.22-1.58-.45-3.17-.67-4.75,.74,0,1.48,.01,2.22,.02Zm-7.5-3.01l.42,.58-.79,.09,.37-.67Zm-9.39-12c.2,.21,.39,.42,.59,.64-.28,.06-.58,.23-.82,.16-.24-.08-.41-.4-.62-.61,.28-.06,.57-.12,.85-.18Zm-7.91,31.83c.34,.16,.67,.32,1.01,.48,.12,.34,.25,.68,.37,1.01-.54-.2-1.08-.4-1.62-.6,.08-.3,.16-.59,.24-.89Zm-3.03-14.8c.85,1.04,1.7,2.07,2.55,3.1-.25,.25-.5,.51-.75,.76-1.04-.9-2.08-1.81-3.12-2.71,.44-.39,.88-.77,1.32-1.16Zm-19.66,41.53l-.32,.62-.4-.54,.71-.07Zm-13.38-32.38l.06,1.05-.52-.19,.46-.86Zm-5.42,59.31c.11-.22,.5-.27,.76-.4,.15,.31,.29,.62,.44,.93-.42,.17-.84,.34-1.26,.51,0-.35-.08-.77,.06-1.04Zm-1.29-10.35c.33,.57,.5,1.22,.73,1.84-.34-.06-.88-.03-.99-.21-.33-.57-.49-1.22-.72-1.85,.34,.07,.88,.04,.98,.22Zm-2.41,18.51c.51,2.51,1.07,3.86,.93,5.12-.08,.72-1.27,1.3-1.96,1.94-.47-1.27-1.2-2.51-1.31-3.81-.06-.67,.99-1.45,2.34-3.25Zm-9.58-8.23c.08-.06,.77,.39,.75,.46-.14,.53-.37,1.03-.58,1.53-.42-.28-.83-.56-1.24-.84,.35-.4,.67-.83,1.08-1.15Zm-19.51,3.51c.06-.9,.49-1.78,.8-2.74,.83,.57,1.86,1.11,1.82,1.28-.23,.86-.7,1.68-1.22,2.37-.07,.09-1.41-.63-1.39-.91Z" name="Layer %{number}" zoom="1" data-layer-id="2969198406236" style="fill: rgb(255, 255, 255); fill-opacity: 1;"></path><path class="cls-1" d="M1156.1,659.67c-.53-.45-1.48-.88-1.5-1.37-.05-.95,.42-1.93,.71-3.02,.26,.18,.52,.34,.76,.48-2.14-39.94-10.98-78.1-25.43-113.37-2.87-7.01-11.04-10.16-17.84-6.82l-25.87,12.72c-3.31,1.63-4.76,5.55-3.32,8.95,5.73,13.47,10.45,27.36,14.15,41.57,.27,.58,.67,1.33,.58,1.42-.06,.05-.12,.1-.18,.15,5.56,21.88,8.69,44.51,9.2,67.59,.08,3.77,3.16,6.79,6.93,6.79h29.03c7.37,0,13.31-6.11,13.03-13.48-.03-.68-.07-1.36-.1-2.04-.05,.14-.09,.28-.14,.43Zm-47.23-58.36c.57-2.31,1.36-4.59,1.67-6.95,.34-2.53,.23-5.13,.32-7.7,5.97,5.67,3.21,10.44-1.98,14.65Zm5.7,46.4c-.09,.03-.17,.07-.26,.1-.73,1.31-1.47,2.61-2.2,3.92-.55-.81-1.1-1.63-1.65-2.44,1.29-.49,2.57-.99,3.86-1.48,.05-.09,.1-.18,.15-.27,.04-.07,.05-.1,.1-.17-.1-2.58-.19-5.16-.29-7.92,2.61,3.83,2.63,3.94,.29,7.92,0,.11,0,.23,.01,.34Zm3.49-37.79c-.24-.03-.48-.07-.72-.1,.16-1.41,.32-2.82,.48-4.23,.24,.03,.48,.07,.72,.1-.16,1.41-.32,2.82-.48,4.23Zm.58,43.16c.24-.85,1-1.52,2.03-2.94,.6,1.89,1.39,3.16,1.09,3.78-.36,.75-1.65,.93-2.53,1.36-.22-.74-.76-1.59-.59-2.2Zm2.53,19.14q-3.14-5.22,2.21-8.43c-.79,3.03-1.43,5.47-2.21,8.43Zm4.04-132.09c-.05-.29-.04-.6-.06-.9-.1-.32-.2-.64-.3-.96-.18-.27-.35-.54-.53-.81-.16-.24-.34-.46-.51-.69,.42,.41,.84,.81,1.26,1.22,.02,.41,.06,.82,.08,1.24,.2,.64,.4,1.28,.61,1.92-.19-.34-.48-.66-.54-1.02Zm1.15,98.21c.69-3.4,1.39-6.81,2.58-12.66,3.37,7.23-.26,9.74-2.58,12.66Zm1.32-33.3c-.56-.32-1.12-.63-1.69-.95,.65-1.92,1.3-3.84,1.94-5.75,.88,.52,1.76,1.04,2.64,1.56-.97,1.71-1.93,3.42-2.9,5.14Zm14.3-20.7c.36,.05,.72,.11,1.08,.16-.2,2.76-.39,5.51-.59,8.27-.46-.16-.93-.33-1.39-.49,.3-2.65,.6-5.29,.9-7.94Zm-9.48,89.98c-.19-.61-.44-1.21-.52-1.83-.02-.16,.47-.41,.73-.62,.2,.6,.46,1.23,.59,1.9,.02,.12-.52,.37-.8,.56Zm8.39-44.74c-1.16-2.64-2.91-5.19-3.23-7.94-.14-1.22,2.61-4.05,4.07-4.07,3.4-.04,.79,2.47,.83,4,.06,2.34,.61,4.67,.96,7-.88,.33-1.75,.67-2.63,1Z" name="Layer %{number}" zoom="1" data-layer-id="5511041406236" style="fill: rgb(255, 255, 255); fill-opacity: 1;"></path><path class="cls-1" d="M814.6,316.12c10.98,.21,21.96,.9,32.88,2.06v-15.86h-32.88v13.8Zm30.09-11.81l.19,1.09-.65-.09,.46-1Zm-27.94-.53c.15,.33,.3,.66,.46,.98-.2,.12-.48,.38-.58,.32-.31-.18-.55-.5-.82-.76,.31-.18,.63-.36,.94-.54Z" name="Layer %{number}" zoom="1" data-layer-id="6646015706236" style="fill: rgb(183, 29, 29); fill-opacity: 1;"></path><path class="cls-1" d="M893.72,302.31h-34.99v17.23c14.6,2,29.09,4.85,43.36,8.55v-1.94c-.52-.3-1.03-.6-1.55-.9-.12,.06-.24,.13-.36,.19-.35-.14-.71-.29-1.07-.4-.33-.1-.68-.16-1.02-.24,.71,.09,1.41,.18,2.12,.27,.11,.06,.22,.13,.32,.19,.52-.27,1.03-.55,1.55-.82v-13.76c0-4.62-3.75-8.37-8.37-8.37Z" name="Layer %{number}" zoom="1" data-layer-id="5949444406236" style="fill: rgb(183, 29, 29); fill-opacity: 1;"></path><path class="cls-1" d="M753.7,207.85h-19.66c-.36,.89-.72,1.78-1.07,2.67,.08,.11,.16,.22,.24,.33-.08,.37-.19,.74-.25,1.11-.06,.34-.07,.69-.1,1.04-.01-.71-.02-1.42-.04-2.13,.05-.12,.09-.23,.14-.35-.58-.8-1.16-1.6-1.75-2.4,.33-.09,.66-.18,.99-.27h-8.34c-6.82,0-12.45,5.06-13.38,11.63,.41,.07,.82,.14,1.23,.21-.17,.52-.33,1.03-.5,1.55-.28-.24-.56-.47-.84-.71-.02,.28-.04,.56-.04,.85v23.24h43.36v-36.77Zm-38.2,31.06c-.12,.34-.23,.68-.35,1.02-.21-.03-.43-.05-.64-.06-.23,.18-.45,.36-.68,.54,.14-.2,.25-.52,.42-.56,.08-.02,.17,.02,.26,.02,.13-.1,.26-.21,.4-.31,.2-.21,.39-.43,.59-.65,.47-1.38,.95-2.76,1.42-4.14,.48,.34,.96,.67,1.44,1.01-.95,1.04-1.91,2.09-2.86,3.13Zm25.53-8.97c-.67-.38-1.33-.77-2-1.15-.01-3.12-.03-6.24-.05-10.47,3.23,.78,5.77,1.39,10.34,2.49-3.59,3.95-5.94,6.54-8.29,9.12Z" name="Layer %{number}" zoom="1" data-layer-id="7882851306236" style="fill: rgb(183, 29, 29); fill-opacity: 1;"></path><path class="cls-1" d="M713.31,287.82c-.18,.92-.36,1.84-.54,2.75h4.2c-.33-.65-.66-1.3-.99-1.96,.68-.08,1.76-.46,1.97-.2,.51,.65,.89,1.4,1.26,2.15h70.47v-36.77h-68.2c-.02,.43-.04,.86-.06,1.29-.59,.05-1.17,.09-1.76,.14-.06-.48-.12-.95-.18-1.42-5.59,.01-10.12,4.55-10.12,10.14v10.16c.11-.39,.23-.79,.34-1.18,.3,.09,.6,.18,.9,.27-.14,1.27-.29,2.53-.43,3.8-.27-.12-.54-.24-.81-.37v13.94h.91c.53-1.14,1.06-2.28,1.58-3.42,.48,.22,.97,.44,1.45,.66Zm72.98-33.27s.43,.46,.41,.48c-.84,.97-1.72,1.92-2.59,2.87-.27-.31-.54-.63-.8-.94,.99-.81,1.97-1.63,2.98-2.41Zm-22.33,30.58c-.17,1.46-.33,2.91-.5,4.37-.27-.04-.55-.08-.82-.12,.17-1.46,.33-2.92,.5-4.37,.27,.04,.55,.08,.82,.13Zm-4.62-17.82c1.13,1.01,2.26,2.02,3.39,3.03-1.32-.19-2.63-.38-3.95-.57,.19-.82,.37-1.64,.56-2.46Zm-8.31,12.72c-.04,1.4-.06,2.38-.09,3.36-.46-.44-1.28-.89-1.28-1.33,0-.55,.69-1.09,1.37-2.04Zm-15.82,2.26l.17,.76-.58-.13,.42-.63Zm-15.58-8.5c.74,.14,1.47,.29,2.21,.43-.73,2.55-1.46,5.09-2.19,7.63-.72-.26-1.45-.53-2.17-.79,.72-2.42,1.44-4.85,2.16-7.27Z" name="Layer %{number}" zoom="1" data-layer-id="6729723606236" style="fill: rgb(183, 29, 29); fill-opacity: 1;"></path><path class="cls-1" d="M710.34,310.69v18c14.28-3.8,28.77-6.75,43.36-8.84v-17.54h-34.99c-4.62,0-8.37,3.75-8.37,8.37Zm18.74-7.75c.36,.61,.55,1.31,.84,2.05-.59-.17-1.38-.18-1.63-.53-.32-.45-.2-1.17-.26-1.78,.36,.08,.93,.05,1.06,.25Z" name="Layer %{number}" zoom="1" data-layer-id="9186642606236" style="fill: rgb(183, 29, 29); fill-opacity: 1;"></path><path class="cls-1" d="M767.16,318.18c10.67-1.14,21.39-1.82,32.12-2.05v-13.82h-32.12v15.87Z" name="Layer %{number}" zoom="1" data-layer-id="2640595606236" style="fill: rgb(183, 29, 29); fill-opacity: 1;"></path><path class="cls-1" d="M894.31,253.8h-93.38v36.77h38.52s0,0,0,0c.71-.04,1.51-.32,2.11-.04,.02,.01,.04,.03,.06,.05h24.14c.02-.13,.05-.22,.1-.23,1.02-.3,2.09-.36,3.26-.52-.08,.24-.15,.5-.21,.75h33.2v-28.99c0-4.3-3.48-7.78-7.78-7.78Zm-75.92,6.6c-.22-1.59-.45-3.17-.67-4.76,.61-.06,1.22-.13,1.83-.19,.04,1.6,.08,3.21,.12,4.81-.43,.05-.85,.09-1.28,.14Zm11.75,16.58c-.41-.34-.83-.69-1.24-1.03,1.05-1.54,2.1-3.08,3.15-4.62,.48,.44,.97,.87,1.45,1.31-1.12,1.45-2.24,2.9-3.36,4.35Zm21.14-8.52c-.17,0-.34-1.11-.59-1.99,.84-.4,1.69-.8,2.55-1.21,.27,.92,.54,1.84,.82,2.77-.92,.17-1.85,.44-2.77,.44Zm7.97,5.69l-.43-.44,.56-.17-.13,.62Zm10.53,6.74c-.37-.54-1.13-1.2-1.03-1.59,.23-.89,.88-1.65,1.42-2.57,.79,.95,1.23,1.48,1.67,2.01-.69,.72-1.38,1.44-2.06,2.15Zm22.67,5.02c.05-1.48,.09-2.96,.14-4.44,.38,0,.77,0,1.15,.01,.03,1.48,.06,2.96,.08,4.44-.46,0-.92-.01-1.37-.02Zm4.1-23.13c.57-2.65,.87-4.05,1.17-5.46,.35,1.02,.84,2.02,.97,3.08,.05,.38-.77,.89-2.14,2.38Z" name="Layer %{number}" zoom="1" data-layer-id="2382010606236" style="fill: rgb(183, 29, 29); fill-opacity: 1;"></path><path class="cls-1" d="M811,239.3c.71,.41,1.41,.81,2.12,1.22-.93,1.36-1.87,2.73-2.8,4.09h37.16v-28.51c-.14-2.38-.29-4.97-.47-7.9,.16,.29,.31,.56,.47,.85v-1.2h-80.32v36.77h40.88c.99-1.77,1.97-3.54,2.96-5.31Zm24.59,2.57c.19,.7,.38,1.39,.57,2.1-.57,.09-1.41,.43-1.65,.19-.47-.48-.6-1.28-.87-1.95,.65-.11,1.3-.23,1.95-.34Zm-2.58-4.07l-.6,.32-.1-.81,.7,.5Zm-22.51-6.45c.11,.28,.37,.73,.3,.8-.38,.4-.84,.71-1.28,1.06-.14-.4-.42-.96-.34-1.03,.39-.35,.88-.57,1.33-.84Zm-26-10.6c-1.07-1.12-2.14-2.24-3.21-3.36,.33-.3,.87-.91,.96-.84,1.23,.9,2.4,1.88,3.58,2.85-.45,.45-.89,.9-1.34,1.35Zm1.68-3.93c-.59-.04-1.17-.07-1.76-.11,.03-2.38,.06-4.77,.09-7.15,.83,.05,1.65,.1,2.48,.16-.27,2.37-.54,4.74-.81,7.1Zm16.12,.21l-.55-.55,.72-.21-.17,.76Z" name="Layer %{number}" zoom="1" data-layer-id="2462602506236" style="fill: rgb(183, 29, 29); fill-opacity: 1;"></path><path class="cls-1" d="M888.57,207.85h-29.84v36.77h43.36v-23.24c0-7.47-6.06-13.52-13.53-13.52Zm-6.97,9.2c-.26-.04-.52-.08-.78-.12,.28-2.44,.55-4.87,.83-7.31,.26,.04,.52,.08,.78,.12-.28,2.44-.55,4.87-.83,7.31Zm12.46,18.6q6.19-1.82,6.24,5.76c-1.79-1.65-3.57-3.3-6.24-5.76Zm7.21-6.86l.5-.29,.22,.84-.72-.55Z" name="Layer %{number}" zoom="1" data-layer-id="3302913706236" style="fill: rgb(183, 29, 29); fill-opacity: 1;"></path><path class="cls-1" d="M749.89,674.76c2.77-5.23,5.05-10.69,6.83-16.32l-85.62-43.4c.32,2.35,.5,4.07-.18,5.05-1.32,1.91-4.62,2.1-6.68,2.89,1.34-2.81,2.53-5.32,4.37-9.2l-22.92-11.62c.23,1.64,.46,3.27,.69,4.91-.66,.11-1.85,.42-1.89,.29-.48-1.54-.79-3.14-1.14-4.73,.75-.17,1.51-.34,2.26-.51l-66.81-33.86c.38,1.11,.8,2.33,1.29,3.75-3.65-3.06-6.46-5.41-9.38-7.85l-11.96-6.06c-5.16-2.61-11.45-.32-13.73,4.99-7.96,18.63-13.98,38.27-17.84,58.67,.15,.73,.3,1.47,.45,2.21-.31,.11-.62,.22-.93,.33-.38,2.12-.74,4.26-1.07,6.4,1.19,.33,2.37,.66,3.56,.99-.29,.82-.58,1.64-.87,2.46-.96-.72-1.93-1.43-2.89-2.15-.32,2.09-.61,4.18-.88,6.28,.15,.57,.25,1.14,.26,1.71,.01,.49-.23,.99-.65,1.58-.88,7.52-1.48,15.11-1.76,22.79-.02,.62,.02,1.23,.11,1.83,.07-.17,.14-.35,.21-.52,.16,.13,.46,.28,.46,.4-.01,.31-.17,.61-.27,.92-.08-.06-.19-.12-.29-.18,.95,4.53,4.94,7.96,9.78,7.96h37.68c-.15-.46-.31-.91-.37-1.39-.02-.17,.45-.42,.7-.64,.21,.63,.46,1.25,.58,1.9,0,.03-.03,.07-.1,.12h33.62s.02-.06,.03-.08c.09-.14,.48-.04,.73-.04-.07,.04-.14,.08-.21,.13h144.8Zm-8.61-15.43l-.53,.63-.17-.84,.7,.21Zm-17.24-15.44c.61-.09,1.36,.98,2.44,1.84-1.05,1.01-1.8,2.24-2.35,2.14-.74-.14-1.7-1.24-1.83-2.07-.09-.55,1.05-1.81,1.75-1.92Zm-2.87,24.17c.73,.17,1.77,1.31,1.77,2,0,.74-1.04,2.02-1.7,2.07-.68,.06-1.43-1.07-3.89-3.13,1.93-.53,2.95-1.15,3.81-.94Zm-14.21-13.9c.51,.29,1.02,.57,1.52,.86-.66,1.42-1.33,2.84-1.99,4.27-.46-.25-.91-.5-1.37-.75,.61-1.46,1.23-2.92,1.84-4.38Zm-10.86-.5c-.14,.31-.27,.62-.4,.93-.25-.4-.55-.77-.72-1.21-.03-.09,.44-.42,.67-.64,.15,.3,.3,.61,.45,.91Zm-2.37-11.61c.12-.6,.77-1.06,1.19-1.59,.26,.62,.76,1.29,.69,1.85-.07,.53-.76,.96-1.17,1.43-.26-.57-.8-1.21-.7-1.7Zm-3.12-14.99c.62,.02,1.22,1.21,1.82,1.88-.73,.56-1.45,1.51-2.21,1.56-.69,.05-1.43-.88-2.61-1.7,1.36-.85,2.19-1.76,3-1.74Zm-7.37,10.79c-.16-.22-.32-.44-.48-.65,.26,.14,.52,.28,.78,.42-.03,.3-.07,.61-.1,.91,.49,1.65,.87,3.38,1.71,4.76,.63,1.05,2.13,1.44,3.74,2.43-2.21,3.78-4.23,7.25-6.26,10.72-.38-.21-.77-.42-1.15-.64,.66-5.76,1.31-11.51,1.97-17.27-.07-.22-.12-.46-.2-.68Zm-96.12-51.97c.98,3.77,2.85,7.56-1,13.67-.68-6.12-1.1-9.88-1.51-13.63,.84-.01,1.68-.03,2.51-.04Zm-18.35-11.76s.06,.04,.11,.07c.29,.09,.78,.25,1.28,.41,0,.11-.03,.23-.05,.35,.57,.32,1.25,.59,1.51,1.11,.59,1.17,.89,2.52,1.23,3.83,.03,.1-.82,.6-.83,.58-.7-1.14-1.49-2.25-1.97-3.51-.21-.56-.03-1.3,.07-2-.09-.05-.18-.09-.26-.15-.37-.24-.72-.46-.96-.61-.39-.12-.31-.1,0,0-.04-.03-.07-.05-.11-.07-.23-.14-.19-.12,0,0Zm-4.2,18.74c.49,.36,1.01,.69,1.43,1.12,.08-.27,.17-.56,.26-.87,1.4,1.69,2.63,2.94,2.53,3.1-.76,1.16-1.79,2.1-2.73,3.12-.38-.54-1.12-1.13-1.06-1.6,.1-.86,.36-1.7,.72-2.83-.53-.22-1.05-.44-1.58-.67,.14-.46,.29-.91,.43-1.37Zm-3.78-1.4c.3,.02,.59,.23,.88,.36-.13,.21-.27,.61-.39,.61-.3-.02-.58-.22-.87-.35,.13-.22,.27-.63,.38-.62Zm-4.47-6.38l2.14,1.43c-1.29,2.65-2.59,5.31-3.88,7.96-.88-.57-1.76-1.13-2.63-1.7,1.46-2.56,2.92-5.13,4.38-7.69Zm.15,39.99l-.48-.13,.39-.79,.09,.93Zm-4.84-46.69c-.19,1.63-.37,3.27-.56,4.9-.39,0-.78-.01-1.17-.02-.1-1.66-.19-3.32-.29-4.98,.67,.03,1.35,.06,2.02,.1Zm.94,21.89c.72,.6,1.45,1.21,2.17,1.82-1.43,1.71-2.85,3.41-4.28,5.12-.4-.33-.79-.65-1.19-.98,1.1-1.99,2.19-3.97,3.29-5.96Zm-3.71,28.99c.53,.33,1.06,.66,1.59,1-.34,.64-.61,1.35-1.06,1.87-.09,.1-1.24-.55-1.23-.81,.04-.7,.44-1.37,.7-2.05Zm-4.37-60.49c.37,.08,.74,.16,1.11,.24-.29,1.25-.58,2.5-.87,3.75-.23-.07-.65-.16-.65-.2,.11-1.26,.26-2.52,.4-3.79Zm1.5,19.35c.36,1.4,.71,2.8,1.07,4.2-.89,.21-1.78,.43-2.66,.64-.14-1.44-.29-2.88-.43-4.31,.68-.18,1.35-.35,2.03-.53Zm-4.96-8.17c-.07,.26-.14,.51-.21,.77,.57,1.63,3.38,3.87-1.1,4.11-.02,.09-.05,.19-.08,.28l-.28,.54,.32-.82s.02,0,.04,0c.37-1.37,.73-2.74,1.1-4.11-.06-.18-.12-.35-.12-.51-.58-.57-1.15-1.14-1.73-1.71,.68,.48,1.37,.97,2.05,1.45Zm-3.18,28.02c.43,.02,.87,.04,1.3,.05,.03,2.42,.06,4.84,.09,7.26-.74,0-1.48-.01-2.22-.02,.28-2.43,.55-4.86,.83-7.29Zm.95,30.95c.28,.47,.57,.94,.85,1.41-.3,.11-.64,.37-.87,.28-.22-.09-.33-.54-.48-.84,.17-.28,.34-.56,.51-.85Zm-1.47-15.37c-.1-.02-.13-.41-.2-.63,.4,.15,.8,.29,1.55,.56-.71,.05-1.04,.13-1.35,.07Zm-4.36,39.08c-.09,.26-.19,.52-.28,.78-.07,1.51-.14,3.03-.21,4.54-.44-.1-.88-.2-1.32-.31,.51-1.41,1.02-2.83,1.53-4.24,.02-.38,.04-.76,.05-1.14,.08,0,.15-.02,.23-.03-.05-8.08-.12-8.2-4.26-13.01,5.63,.08,5.47,.2,7.9,4.13,1.46,2.37,3.51,4.28,6.43,7.75-4.12,.46-7.11,.8-10.07,1.13,0,.14,0,.24,0,.38Zm9.3-27.59c-1.15-1.26-2.29-2.51-3.44-3.77,.45-.51,.89-1.03,1.34-1.54,1.07,1.39,2.14,2.77,3.22,4.16-.37,.38-.75,.77-1.12,1.15Zm-.72-31.79c-.19-.67-.38-1.34-.58-2.01,.64-.18,1.28-.36,1.93-.54,.29,.56,.58,1.13,.87,1.69-.74,.29-1.48,.58-2.22,.87Zm3.05,16.43c-.27-.03-.53-.21-.8-.33,.12-.17,.25-.5,.35-.49,.27,.03,.53,.21,.8,.33-.12,.18-.25,.51-.35,.5Zm6.91,40.35c-.52-.24-.98-.66-1.46-1.02,.26-.19,.6-.6,.75-.53,.52,.25,.98,.67,1.46,1.03-.26,.19-.59,.59-.75,.52Zm2.76,5.39c-.16-.14-.12-.55-.17-.84,.32-.07,.64-.14,.96-.21,.06,.49,.11,.98,.17,1.46-.33-.13-.71-.19-.96-.42Zm8.95-6.44l-.48-.46,.62-.15-.14,.61Zm1.79-17.79c-.91,4.46-2.53,8.8-4.3,12.95-1.18,2.78-3.04,3.28-4.41-.17l-.18,.13-.18,.13c.02-.15,.04-.3,.05-.44-1.22-.75-2.45-1.5-3.67-2.24-.3-.01-.6-.03-.9-.04-1.08,1.09-2.21,2.21-4.06,4.07-.61-3.49-1.09-6.21-1.58-8.94,.49-.26,.98-.52,1.46-.77,1.37,1.88,2.75,3.76,4.12,5.64l.36-.31c.2,.12,.39,.24,.59,.36,1.31,.07,2.61,.13,3.92,.2,.02-.13,.03-.25,.04-.38l.27,.39c2.06-5.36,4.11-10.72,6.17-16.08-.04-.09-.1-.17-.14-.26-.02-.15-.04-.29-.06-.44-4.85-1.8-4.52-5.51-1.68-11.57,.71,4.86,1.2,8.24,1.68,11.57,.15,.05,.25,.12,.4,.17-.07,.18-.13,.35-.2,.53,.91,1.87,2.6,3.95,2.28,5.51Zm3.09-.9c-.21-.32-.5-.62-.59-.96-.05-.18,.24-.41,.37-.62,.3,.22,.61,.43,.91,.65-.23,.31-.46,.62-.7,.93Zm3,6.25c4.73,4.22,2,9.03,3.15,15.16-4.33-5.58-6.35-9.57-3.15-15.16Zm7.85,3.28c-.86-.28-1.63-.96-2.82-1.74,.98-1.07,1.62-1.77,2.26-2.47,.58,.88,1.32,1.69,1.67,2.67,.12,.32-.87,1.62-1.12,1.55Zm.64-9.3c-2.44,.8-5.73,.91-5.58-3.71-.11-.07-.19-.09-.3-.17-.79,0-1.58-.02-2.37-.02-.81-.07-1.62-.13-2.43-.2-.01-.16-.03-.32-.04-.48-2.94-2.12-4.99-4.55-.79-8.89,.26,2.96,.52,5.92,.79,8.89,.1,.07,.19,.15,.29,.22,.66,.05,1.32,.09,1.98,.14,.96,0,1.91,.02,2.87,.03-.02,.18,.01,.31,0,.48,4.93,3.29,5.88-1.99,8.23-7.22,1.32,5.98,1.45,9.6-2.65,10.94Zm7.77,21.57c-.67,.71-1.59,1.13-2.41,1.66-.25-.66-.5-1.33-.87-2.32,.87-.42,1.74-.85,2.62-1.27,.24,.67,.84,1.75,.67,1.93Zm.38-18.23c-.26,.02-.52,.04-.78,.07,.26-.47,.51-.94,.77-1.41,.22,.2,.44,.4,.67,.6-.22,.25-.44,.5-.66,.74Zm-3.47-25.22c1.06,.31,2.19,.65,3.36,1-2.81,7.46-8.34,6.38-14.16,8.27,2.29-3.64,3.92-6.22,5.72-9.07-.2,0-.4,0-.58,0-4-1-7-6-2.19-9.01l.62-.91c4.57-2.08,15.57-1.08,14.57,4.92,0,3.31-3.51,4.43-7.33,4.8Zm9.61,55.92c-1-1.65-2.01-3.31-3.01-4.96,.53-.39,1.06-.79,1.59-1.18,.97,1.68,1.94,3.36,2.91,5.04-.5,.37-.99,.74-1.49,1.11Zm2.79-25.54c.28,2.24,.81,3.9,.47,4.16-1.02,.78-2.37,1.02-3.59,1.47-.15-.69-.63-1.67-.39-2.01,.8-1.1,1.85-1.97,3.51-3.62Zm1.59-25.52c-.17,2.73-.33,5.46-.62,10.05-3.62-4.77-3.31-7.49,.62-10.05Zm-5.12,15.26l-.75-.48,.88-.14-.13,.63Zm7.22,22.08c-1.12-.48-2.25-.97-3.37-1.45,.14-.67,.27-1.34,.41-2.01,1.12,.48,2.28,.88,3.33,1.51,.15,.09-.23,1.27-.36,1.95Zm-1.03-22c.22-.22,.45-.43,.67-.65,.22-.07,.44-.14,.66-.21-.01,.31-.02,.63-.03,.94-.43-.03-.86-.06-1.3-.09Zm1.48-38.08c-.96-2.05-1.92-4.1-2.98-6.35-1.21,.72-2.42,1.44-4.05,2.42-.95-3.29-1.86-6.49-3.09-10.75,3.81,.54,6.45,.92,10.32,1.47,.6,3.63,1.33,8.02,2.05,12.4-.75,.27-1.5,.54-2.26,.81Zm24.22,67.5c-.14,.14-1.09-.71-1.67-1.1,.86-1.44,1.72-2.87,2.59-4.31,.66,.63,1.32,1.25,1.99,1.88-.95,1.2-1.85,2.47-2.91,3.53Zm21.12-8.82c-.14-.28-.29-.56-.43-.84,.2-.01,.4-.03,.6-.04-.06,.29-.12,.59-.17,.89Zm16.6-28.61c.44,2.19,.96,3.34,.77,4.32-.16,.81-1.16,1.98-1.77,1.96-.69-.02-1.85-1.14-1.9-1.85-.05-.76,.97-1.61,2.9-4.43Zm-9.69,16.96l.1-.35c.09-.05,.18-.1,.27-.15,.49-.68,.99-1.36,1.48-2.04,.12,.35,.39,.98,.35,1-.59,.38-1.21,.7-1.83,1.03-.1,.14-.21,.28-.31,.43l-.1,.68,.05-.61Zm-3.2-12.88c.23,.65,.45,1.3,.68,1.95-.41,.49-.81,.98-1.22,1.47-.2-.64-.63-1.33-.54-1.92,.08-.55,.7-1.01,1.08-1.5Zm-13.11-21.6c-.15,2.64-.31,5.28-.46,7.93,.12,.05,.19,.1,.32,.15,.04,.19,.09,.37,.13,.56,1.97,.9,3.94,1.81,5.92,2.71,0-.12,.01-.23,.02-.35,.12-.05,.21-.1,.33-.14,.21-3.86-1.94-8.46,2.9-10.84,4.42,6.02,3.88,8.1-2.9,10.84-.01,.21,0,.43-.03,.64-.11-.05-.22-.1-.32-.15-.04,.76-.08,1.52-.13,2.28,.07-.04,.13-.07,.2-.11-.03,.11-.06,.22-.09,.33,3.7,1.12,2.17,4.13,1.66,6.57-.66,3.11-.83,6.49-2.09,9.68,3.95,2.72,6.77,6.34,5.41,10.44-2,6-16,6-17-2-1-4,1-7,1.87-10.78l3.78-.82c.84,.34,1.69,.73,2.53,1.16,1.35-5.02,2.6-9.64,3.84-14.25-.05-.01-.07-.03-.12-.05,0-.06,0-.11,0-.17-1.36,.77-2.71,1.54-4.07,2.31-.57-2.44-1.15-4.87-1.72-7.31-.16-.07-.32-.15-.48-.22,0-.16,.02-.33,.03-.49-4.81-1.97-3.71-4.77,.46-7.93Zm-1.98,16.39c-.48,.18-.96,.35-1.44,.53-.69-1.33-1.38-2.67-2.07-4,.58-.22,1.17-.44,1.75-.66,.58,1.38,1.17,2.75,1.75,4.13Zm-3.39-17.75c.46,1.16,.93,2.33,1.39,3.49-1-.89-2-1.79-2.99-2.68,.53-.27,1.07-.54,1.6-.81Zm-12.15,2.21c-.09,.27-.19,.54-.28,.82-.16-.12-.32-.25-.48-.38,.25-.15,.51-.29,.76-.44Zm-7.57,24.05c.08,2.04,.16,4.08,.23,6.13,.08,.07,.12,.12,.21,.2,2.26-7.98,11.13-12.16,9-23.73,4.58,2.69,9.42,.1,10.36,6.71,.92,6.46-5.17,3.91-6.94,6.64q-2.66,19.65-13.59,17.17c.46-2.2,.92-4.39,1.38-6.59l-.39,.32c0-.24-.02-.48-.03-.72-2.45-2.23-2.41-2.52-.23-6.13Zm-7-8.79l.44-.52c.1-.12,.19-.24,.29-.35,.09-.87,.18-1.75,.27-2.62,.42,.25,.84,.5,1.26,.74-.51,.63-1.02,1.25-1.52,1.88-.02,.22-.05,.45-.07,.67l-.66,.2Z" name="Layer %{number}" zoom="1" data-layer-id="6434774106236" style="fill: rgb(183, 29, 29); fill-opacity: 1;"></path><path class="cls-1" d="M760.55,612.6l-80.04-135.52c-.56,.07-1.12,.15-1.68,.22-.08-1.16-.17-2.32-.25-3.48l-18.23-30.87c-2.95-5-9.53-6.44-14.31-3.14-3.83,2.64-7.58,5.38-11.28,8.2,1.03,1.25,2.05,2.5,3.08,3.75-.29,.22-.58,.44-.87,.66-1.08-1.21-2.16-2.42-3.25-3.63-29.04,22.36-53.67,50.17-72.33,81.9-2.93,4.98-1.07,11.41,4.09,14.02l.72,.36c.01-.11,.02-.22,.04-.32,.02,.12,.03,.24,.04,.36l193.97,98.32c1.6-10.18,1.7-20.61,.3-30.82Zm-198.74-79.42c-.18-.17-.03-.69-.03-1.05,.58,.22,1.16,.44,1.74,.67,0,.54,.01,1.08,.02,1.63-.59-.41-1.22-.76-1.73-1.25Zm13.22-3.95c.5-.49,1-.99,1.49-1.48,.62,1.4,1.25,2.8,1.87,4.2-1.12-.91-2.24-1.81-3.36-2.72Zm9.18-18.12c.11-.32,.22-.64,.32-.96,.15,.14,.3,.28,.44,.41-.26,.18-.51,.37-.77,.55Zm9.49,46.22l-.34-.52h.61s-.28,.52-.28,.52Zm10.79-66.08c-.63-.36-1.26-.72-1.89-1.08,.12-.49,.23-.98,.35-1.47,.54,.48,1.15,.92,1.59,1.47,.18,.22-.02,.72-.04,1.09Zm1.59,37.9c-.35-.65-.55-1.37-.82-2.14,.6,.16,1.4,.14,1.65,.49,.32,.44,.18,1.17,.25,1.77-.37-.03-.98,.04-1.07-.12Zm43.8-52.22c.43,1.35,.86,2.7,1.29,4.05-.64,.29-1.29,.58-1.93,.87-.65-1.24-1.45-2.44-1.83-3.73-.07-.23,1.6-.79,2.47-1.19Zm-1.79,42.29q-6.41,.73-5.16-6.74c1.48,1.93,2.96,3.86,5.16,6.74Zm-4.9-8.92c.29-.18,.58-.37,.87-.55v.39c-.29,.05-.58,.1-.87,.16Zm-10.28-44.53c.31,.06,.61,.12,.92,.19-.07,1.38-.14,2.76-.2,4.14-.56-.19-1.11-.38-1.67-.56,.32-1.26,.63-2.51,.95-3.77Zm-16.22,92.15l-.45-.63,.76-.04-.31,.66Zm1.69,1.27c-.97-3.85-1.81-7.17-2.64-10.48,2.49,2.75,5.96,5.16,2.64,10.48Zm3.42-70.53c-.31-.18-.55-.47-.82-.72,.31-.19,.62-.37,.93-.56,.14,.33,.29,.65,.43,.98-.18,.11-.44,.36-.54,.3Zm4.59,.61c-.15-.27-.45-.58-.4-.81,.04-.23,.43-.37,.67-.55,.15,.27,.45,.58,.41,.81-.04,.23-.43,.37-.67,.55Zm4.79,.09l.09,.23c1.35-3.71,5.35-4.71,8.35-3.71,6,2,6,8,5,13-2,4-6,1-9,0-3-2-5-6-4.44-9.52Zm7.49,13.57c-.1,.34-.15,.72-.32,1.02-.09,.15-.39,.13-.59,.19-.06-.35-.13-.7-.19-1.05,.37-.05,.74-.11,1.1-.16Zm9.87,67.93c-.56-.06-1.12-.12-1.68-.18,.13-1.97,.26-3.95,.39-5.92,.77,.2,1.54,.4,2.3,.6-.34,1.83-.68,3.67-1.02,5.5Zm.75-13.07c-.16-.31-.5-.69-.43-.91,.18-.6,.54-1.14,.83-1.7,.18,.29,.36,.59,.53,.88-.31,.58-.62,1.15-.93,1.73Zm2.32-4.91c-4,4-9,3-14,1-6-4-3-9-.99-13.67l3.98-.82c5.01,1.49,15.01,7.49,11.01,13.49Zm79.84,33.5c.37,.07,.74,.14,1.11,.21-.21,1.16-.41,2.32-.62,3.48-.3-.06-.59-.11-.89-.17,.13-1.17,.27-2.35,.4-3.52Zm-14.44-4.75c.14,.27,.41,.57,.37,.79-.05,.22-.42,.35-.65,.52-.14-.27-.41-.57-.37-.79,.05-.22,.42-.35,.65-.52Zm-28.81-71.66c2.17,2.65,4.15,5.07,7.16,8.74-7.4-.53-7.34-4.4-7.16-8.74Zm-17.47-34.22c-.57-.39-1.15-.78-1.72-1.17,.04-.34,.08-.67,.13-1.01,.54,.38,1.14,.72,1.6,1.18,.16,.17,0,.65-.01,.99Zm13.53,62.56c-3.94-2.14-7.87-4.27-11.81-6.41,.3-.62,.59-1.25,.89-1.87,4.01,1.94,8.03,3.89,12.04,5.83-.37,.82-.75,1.64-1.12,2.46Zm2.36,49.24c-.09-.7-.46-1.62-.19-2.05,.27-.43,1.17-.37,1.79-.52,.15,.67,.3,1.34,.44,2.01-.68,.18-1.36,.37-2.04,.55Zm2.61-52.7c.9,.07,1.79,.15,2.69,.22-.63,5.54-1.26,11.09-2.19,19.26-3.02-8.42-3.04-14.02-.5-19.48Zm2.69,72.92v-.83s.33,.09,.33,.09l-.33,.74Zm8.24-16.63c-.53-.36-1.1-.68-1.56-1.11-.14-.13,.05-.61,.08-.92,.52,.36,1.09,.67,1.54,1.11,.14,.14-.04,.61-.07,.92Zm1.1,11.81l-.15-.91,.66,.18-.51,.73Zm4.03,.96c-.35-.08-.85-.06-1.01-.27-.16-.21,.02-.66,.05-1.01,.35,.08,.7,.16,1.06,.24-.03,.35-.06,.69-.09,1.04Zm-.34-25.36c-.62-2.32-1.07-4.71-1.56-7.08,.88-.13,1.76-.26,2.64-.39,.51,2.3,1.02,4.59,1.53,6.89-.91,.21-2.59,.67-2.62,.58Zm5.52-25.6c-1.12,2.98-5.21,2.97-8.31,3.97-6.08,.23-3.88-5.77-5.63-9.17l-.44-2.89c-.41-.26-.82-.53-1.17-.85-.17-.16,.04-.72,.08-1.07,.51,.34,1.11,.68,1.62,1.11,3.15-2.76,6.77-2.16,9.54-.06,2.95,2.24,4.91,5.97,4.3,8.96Zm20.46,71.33c-.57,.12-1.35-1-3.75-2.98,1.94-.55,2.93-1.16,3.79-.98,.7,.15,1.81,1.34,1.73,1.88-.13,.82-1.04,1.92-1.77,2.07Zm-.02-20.43c-4.07,2.97-8.01-.04-12.02-.05-6.98-2.01-7.72-12.01-1.59-14.99,5.1-1.99,9.01,1.01,13.22,4.18,3.29,3.6,4.53,8.39,.39,10.86Zm5.99-6.92c-.68,.2-1.86-1.8-3.54-3.58,1.93-1.03,3.13-2.24,4.16-2.08,1.08,.17,1.99,1.65,2.97,2.56-1.18,1.1-2.25,2.7-3.59,3.09Zm3.98,28.75c-.27-.04-.53-.08-.8-.11,.14-1.19,.27-2.37,.41-3.56,.27,.04,.53,.08,.8,.11-.14,1.19-.27,2.37-.41,3.56Zm7.71-13.66c-.14-.27-.43-.59-.38-.81,.05-.22,.43-.35,.67-.52,.14,.27,.43,.59,.38,.81-.05,.22-.43,.35-.67,.52Zm2.29-4.55c.18-1.59,.36-3.17,.54-4.76,.3,.04,.59,.08,.89,.13-.18,1.59-.36,3.17-.54,4.76-.3-.04-.59-.08-.89-.13Z" name="Layer %{number}" zoom="1" data-layer-id="5969755806236" style="fill: rgb(183, 29, 29); fill-opacity: 1;"></path><path class="cls-1" d="M731.91,531.29c.04-.17,.09-.35,.13-.52,.29,.36,.59,.72,.88,1.08,1.28,.77,2.55,1.54,3.83,2.31-.31,.41-.62,.82-.93,1.23-.97-1.18-1.93-2.36-2.9-3.54-.32-.19-.63-.38-.95-.57-.02,0-.04,.01-.06,.02-.19,.77-.39,1.54-.59,2.32l52.75,89.32c4.11,6.96,14.79,4.05,14.79-4.04v-85.45c-1.8-5.81-3.73-11.58-5.65-17.31,1.92,.86,3.81,1.8,5.65,2.81v-99.66c-.19-.2-.37-.39-.56-.59,.16-.15,.38-.37,.56-.54v-17.84c0-5.79-4.9-10.37-10.68-9.98-9.72,.65-19.3,1.79-28.73,3.39,.12,.16,.23,.32,.35,.49-.77,0-1.43-.08-2.03-.19-28.54,5.02-55.63,14.3-80.59,27.16-1.32,.68-2.42,1.62-3.28,2.72,.79,2.04,.61,5.09,.28,10.79-.83-1.64-1.62-3.21-2.4-4.77-.03,1.78,.4,3.59,1.38,5.25l57.05,96.6c.51-.17,1.06-.32,1.69-.45Zm2.95-37.69c-.63-1.23-1.25-2.47-1.88-3.7,.68-.08,1.76-.46,1.97-.2,.77,.98,1.24,2.17,1.83,3.28-.64,.21-1.28,.41-1.92,.62Zm34.63,85.6c-.73-.77-1.37-1.45-1.97-2.09-.26,1.19-.85,2.44-1.85,3.82-3.05-3.77-3.73-6.8-.48-11.27,.96,1.33,1.68,2.56,2.09,3.78,2.14,.46,3,1.99,2.21,5.76Zm22.19-128.25c.06-.11,.63,.03,.96,.06-.23,.59-.41,1.22-.73,1.76-.08,.14-.62,.02-.96,.02,.23-.62,.41-1.26,.73-1.84Zm1,130.63c.87,3.33,1.58,4.54,1.31,5.35-.4,1.21-1.48,2.15-2.28,3.2-.56-.74-1.62-1.52-1.58-2.2,.08-1.18,.85-2.3,2.54-6.35Zm-9.21-180.87c-.01-1.31,.35-2.75,1.17-4.45,3.65,3.19,4.84,6.06,2.41,11.02-1.86-1.82-3.09-3.49-3.46-5.41-.59,.17-1.18,.33-1.77,.49-.05-.41-.11-.82-.16-1.23,.61-.14,1.21-.28,1.82-.42Zm5.41,101.54c1.45,2.47,1.51,5.27-.99,6.68-2.1,1.18-4.25,1.24-6.13,.56-1.17,4.19-1.81,6.57-2.57,8.89-.04,.11-1.62,0-1.88-.45-1.84-3.14-1.07-5.55,3.89-8.67-3.11-1.41-5.38-4.87-5.31-8.62l.09,.23c1.57-1.54,2.53-3.53,5.58-3.39,3.05,.14,5.88,2.29,7.33,4.77Zm-7.92-15.84c-.17,1.46-.33,2.91-.5,4.37-.27-.04-.55-.08-.82-.12,.17-1.46,.33-2.92,.5-4.37,.27,.04,.55,.08,.82,.13Zm-5.18-15.36c.19-.82,.37-1.64,.56-2.46,1.13,1.01,2.26,2.02,3.39,3.03-1.32-.19-2.63-.38-3.95-.57Zm.82-73.48c-.24,.49-.47,.98-.71,1.47,.01,.03,.03,.07,.04,.1,.02,.06,.04,.12,.06,.19,1.17,1.64,2.34,3.29,3.51,4.93-.61,.19-1.21,.37-1.81,.56-.56-1.83-1.13-3.66-1.69-5.49-.05-.07-.1-.13-.14-.2,.01-.03,.03-.06,.04-.09-.24-.56-.49-1.12-.73-1.68,.48,.07,.96,.14,1.44,.21Zm-11.33,11.72c1.41-4.11,7.32-6.51,10.39-2.44,2.02,2.99,4.05,7.98,1.06,9.98-4.51,3.02-10.35,.99-11.62-4.45-.25-1.08-.17-2.13,.16-3.08Zm1.07,12.81c-3.59,3.95-5.94,6.54-8.29,9.12-.67-.38-1.33-.77-2-1.15-.01-3.12-.03-6.24-.05-10.47,3.23,.78,5.77,1.39,10.34,2.49Zm-9.67,29.48l.59-.88c6.37-.84,13.37,1.16,15.37,7.16,0,3-2.99,5.99-4.99,6-5.47,.02-16.96-5.28-10.97-12.28Zm10.75,79.14c.31,.59,.63,1.17,.99,1.85-.56-.05-1.09-.01-1.56-.19-.25-.09-.61-.76-.54-.83,.3-.34,.73-.57,1.11-.83Zm-.75-47.38c0-.55,.69-1.09,1.37-2.04-.04,1.4-.06,2.38-.09,3.36-.46-.44-1.28-.89-1.28-1.33Zm-12.94,64.25c.4-.22,.89-.3,1.37-.41-.58-1.3-.83-2.72-.64-4.14,1.55-11.41,17.34-3.93,19.98,2.8,.75,1.92,.97,4.35-.47,5.83-.45,.46-1,.78-1.6,1-.6,.23-1.24,.37-1.87,.48-3.64,.64-7.54,.57-10.82-1.13-1.84-.96-3.43-2.52-4.37-4.36,.03,.45,.06,.89,.09,1.34-.55-.13-1.12-.2-1.63-.44-.13-.06-.19-.88-.04-.96Zm-1.51-64.02l.17,.76-.58-.13,.42-.63Zm-.93-75c-.43,1.08-.87,2.16-1.3,3.23,.08,.11,.16,.22,.24,.33-.08,.37-.19,.74-.25,1.11-.06,.35-.07,.69-.1,1.04-.01-.71-.02-1.42-.04-2.13,.05-.12,.09-.23,.14-.35-.58-.8-1.16-1.6-1.75-2.4,1.02-.28,2.03-.56,3.05-.84Zm-5.19,95.66c.36,.61,.55,1.31,.84,2.05-.59-.17-1.38-.17-1.63-.53-.32-.45-.2-1.17-.26-1.78,.36,.08,.93,.05,1.06,.25Zm-2.71-105.62l-.58,.32-.14-.83,.71,.52Zm-6.73,84.52c-.72-.26-1.45-.53-2.17-.79,.72-2.42,1.44-4.85,2.16-7.27,.74,.14,1.47,.29,2.21,.43-.73,2.54-1.46,5.09-2.19,7.63Zm2.06-32.93c-.09,2.06-.19,4.12-.28,6.17-.59,.05-1.17,.09-1.76,.14-.26-2.09-.52-4.17-.78-6.26,.94-.02,1.88-.04,2.82-.06Zm-7.43-9.07c.08-.02,.17,.02,.26,.02,.13-.1,.26-.21,.4-.31,.2-.22,.39-.43,.59-.65,.47-1.38,.95-2.76,1.42-4.14,.48,.34,.96,.67,1.44,1.01-.95,1.04-1.91,2.09-2.86,3.13-.12,.34-.23,.68-.35,1.02-.21-.03-.43-.05-.64-.06-.23,.18-.45,.36-.68,.54,.14-.2,.25-.52,.42-.56Zm-3.79-28.5c.59,.12,1.18,.24,2.08,.43-.17,1-.32,1.94-.48,2.87-.6-.26-1.62-.46-1.71-.8-.2-.8,.04-1.66,.11-2.49Zm-7.09,2.78c1.38,1.44,2.77,2.88,4.15,4.31,.22,.07,.43,.15,.65,.22,.21,.18,.41,.35,.62,.53,.97,.17,1.94,.33,2.91,.5-.17,.52-.33,1.03-.5,1.55-.81-.68-1.61-1.36-2.42-2.05-.22-.04-.44-.07-.66-.11l.03-.41-.03,.41c-.2-.21-.41-.42-.61-.64-1.81-.62-3.63-1.25-5.45-1.87,.43-.82,.86-1.63,1.29-2.45Zm7.9,32.92c-.02,.58-.04,1.17-.06,1.75-.59-.43-1.24-.79-1.74-1.31-.2-.2-.05-.73-.06-1.12,.62,.23,1.24,.45,1.86,.68Zm-40.43-17.59c-.14-.71-.34-1.42-.37-2.14,0-.19,.53-.4,.82-.6,.12,.69,.32,1.37,.32,2.06,0,.23-.5,.46-.77,.69Zm8.61-7.95c-.22,.07-.55-.11-.83-.18,.12-.31,.22-.89,.36-.88,.4,.02,.8,.28,1.2,.45-.24,.21-.44,.51-.74,.61Zm5.15-12.77c3.14,2.18,6.27,4.37,9.41,6.55-.39,.6-.79,1.2-1.18,1.8-3.12-2.2-6.25-4.41-9.37-6.61,.38-.58,.76-1.16,1.14-1.74Zm5.79,22.9c-1.15-2.01-1.1-3.94-.34-5.53,2-4.18,8.89-5.97,11.62-.51,1.47,2.94,.2,6.95-2.7,8.51-.41,.22-.85,.38-1.3,.49-.12,.42-.27,.92-.42,1.47-.29-.47-.54-.89-.79-1.29-2.39,.13-4.88-1.05-6.08-3.14Zm9.46,18.35c-.29,.87-.45,1.8-.94,2.49-.14,.2-1.79-.37-1.8-.52-.04-.96,.19-1.9,.33-2.85,.65,.24,1.29,.47,2.41,.88Zm3.6,59.46c-.86-.31-1.71-.63-2.57-.94,.38-.57,.64-1.35,1.19-1.64,.38-.2,1.17,.29,1.78,.47-.14,.76-.27,1.44-.4,2.11Zm2.71-26.06c-2.54,1.03-5.72,.27-7.45-1.85-1.75-2.14-1.97-4.11-1.31-5.71,1.72-4.15,9.38-5.85,11.98-1.84l.31-1.07c.3,.09,.6,.18,.9,.27-.13,1.12-.26,2.24-.38,3.36,.03,.34,.05,.69,.04,1.07-.09,2.49-1.78,4.83-4.09,5.77Zm3.6,8.27c.7-1.5,1.39-3.01,2.09-4.51,.48,.22,.97,.44,1.45,.66-.34,1.72-.68,3.44-1.02,5.17-.84-.44-1.68-.88-2.52-1.32Z" name="Layer %{number}" zoom="1" data-layer-id="3648119606236" style="fill: rgb(183, 29, 29); fill-opacity: 1;"></path><path class="cls-1" d="M939.87,422.4c-28.58-15.07-60.02-25.41-93.27-30.01,.33,.85,.67,1.7,1,2.56-.85,.28-1.69,.56-2.54,.84-.52-1.26-1.04-2.53-1.56-3.79-3.71-.47-7.43-.9-11.17-1.22,.03,.21,.05,.42,.08,.63-.51-.12-1.05-.18-1.51-.41-.05-.03-.09-.17-.11-.33-2.1-.17-4.2-.34-6.31-.46-5.76-.34-10.63,4.22-10.63,9.99v129.39c18.73,16.71,30.09,41.85,28.89,67.02,2.67-8.05,5.35-16.11,8.02-24.16,3.81-1.29,7.07,2.18,9.21,5.89l4.13-6.99c-.24-.3-.5-.59-.74-.89,.35-.22,.7-.44,1.05-.66,.1,.17,.2,.34,.31,.51l79.11-133.94c2.91-4.92,1.1-11.28-3.95-13.94Zm-112.37,10.25c.11,.28,.37,.73,.3,.8-.38,.4-.84,.71-1.28,1.06-.14-.4-.42-.96-.34-1.03,.39-.35,.88-.57,1.33-.84Zm-8.2-14.32l-.55-.55,.72-.21-.17,.76Zm5.1-26.53l-.2-.21c-.02,.25-.05,.5-.07,.75-.56,.23-1.13,.45-1.69,.68,.02-.33-.06-.87,.08-.96,.47-.28,1-.45,1.51-.64l-.18-.19,.73-.21-.19,.79Zm1.98,119.06c-.07,.32-.37,.57-.57,.85,.14-.65,.29-1.29,.43-1.94,.06,.36,.21,.76,.14,1.08Zm-.12-63.38c-.52-.3-1.05-.6-1.57-.9,1.11-1.99,2.22-3.98,3.33-5.98,.71,.41,1.41,.81,2.12,1.22-1.29,1.89-2.58,3.77-3.87,5.66Zm4.61,68.85l-.39-.82,.76,.54-.37,.27Zm22.3-71.06c-.57,.09-1.41,.43-1.65,.19-.47-.48-.6-1.28-.87-1.95,.65-.11,1.3-.23,1.95-.34,.19,.7,.38,1.39,.57,2.1Zm-2.62-41.07c.29,1.16,.59,2.32,.82,3.48,.01,.06-.9,.28-.92,.24-.54-1.1-1.02-2.23-1.51-3.35,.54-.12,1.07-.25,1.61-.37Zm-.53,34.91l-.6,.32-.1-.81,.7,.5Zm-6.88-40.42c.4,1.48,.79,2.95,1.19,4.43-.69,.04-1.98,.18-1.99,.12-.37-1.44-.6-2.91-.86-4.37,.56-.06,1.11-.12,1.67-.18Zm-3.17,53.41l3.6-2.38c4.4-.69,9.12,1.63,11.13,5.63,1.79,3.57,.88,9.35-2.46,12.11-3.43,2.83-8.92,2.81-12.23-.21-4.51-4.11-2.61-10.56-.04-15.15Zm7.18,26.18c-.41-.34-.83-.69-1.24-1.03,1.05-1.54,2.1-3.08,3.15-4.62,.48,.44,.97,.87,1.45,1.31-1.12,1.45-2.24,2.9-3.36,4.35Zm1.15,44.62l-.3,.54-.34-.53h.65Zm-2.76-23.01c-.33-.18-.67-.35-1-.53-.14-.32-.28-.65-.42-.97,.47,.15,.99,.21,1.37,.48,.16,.11,.04,.67,.05,1.02Zm-12.73,5.72c.31-.18,.63-.36,.94-.54,.15,.33,.3,.66,.46,.98-.2,.11-.48,.38-.58,.32-.31-.18-.55-.5-.82-.76Zm1.29,42.81c-.32-.64-.46-1.36-.66-2.05,.38,.07,1,.05,1.1,.24,.32,.66,.46,1.39,.66,2.1-.38-.09-.99-.08-1.1-.29Zm.62-91.48c.61-.06,1.22-.13,1.83-.19,.04,1.6,.08,3.21,.12,4.81-.43,.05-.85,.09-1.28,.14-.22-1.58-.45-3.17-.67-4.76Zm19.75,98.2c-6.11,.28-15.11,.28-18.11-6.72,0-1.12,.32-2.22,.76-3.17-.34-.16-.69-.33-1.08-.5,2.36-1.94,4-3.29,5.65-4.64,.46,.53,.92,1.06,1.39,1.59-.16,.22-.31,.44-.47,.67,3.86,.17,7.78,2.86,10.55,5.04,3.76,2.61,5.43,5.99,1.3,7.72Zm2.91-61.28c-.51-.43-.64-1.31-.93-2.01,.71-.04,1.51-.32,2.11-.04,.37,.17,.44,1.17,.64,1.8-.63,.11-1.51,.52-1.83,.25Zm3.86,12.74l.46-1,.19,1.09-.65-.09Zm15.15-31.77l-.13,.62-.43-.44,.56-.17Zm-12.37-65.33c4.42,7.78,5.4,13.29,3.83,19.1-.9,.08-1.79,.16-2.69,.24-.33-5.57-.66-11.14-1.14-19.35Zm3.68,58.27c.84-.4,1.69-.8,2.55-1.21,.27,.92,.54,1.84,.82,2.77-.92,.17-1.85,.44-2.77,.43-.17,0-.34-1.11-.59-1.99Zm9.19,58.63c-.17-.35-.55-.76-.47-1.02,.19-.66,.57-1.25,.88-1.87,.23,.3,.47,.6,.68,.87-.39,.73-.74,1.38-1.09,2.02Zm7.94-22.18c-2,4-6,5-10,4-3-2-7-6-4.35-9.66l.09,.26c2.26-1.6,4.26-5.6,7.26-5.6,5,1,8,6,7,11Zm.57-11.12c-.86,.31-1.82,.22-2.74,.3,.07-.61,.05-1.71,.21-1.76,1.02-.3,2.09-.36,3.26-.52-.28,.83-.39,1.86-.72,1.98Zm1.4-10.91c-.37-.54-1.13-1.2-1.03-1.59,.23-.89,.88-1.65,1.42-2.57,.79,.95,1.23,1.48,1.67,2.01-.69,.72-1.38,1.44-2.06,2.15Zm11.83-38.32c0,4-5,6-9,3-2-2-6-4-4.11-8.07l.09,.22c6.02-6.15,14.02-3.15,13.02,4.85Zm-.01-25.53c-.26-.04-.52-.08-.78-.12,.28-2.44,.55-4.87,.83-7.31,.26,.04,.52,.08,.78,.12-.28,2.44-.55,4.87-.83,7.31Zm10.86,68.87c.05-1.48,.09-2.96,.14-4.44,.38,0,.77,0,1.15,.01l.08,4.44c-.46,0-.92-.01-1.37-.02Zm4.1-23.13c.57-2.65,.87-4.05,1.17-5.46,.35,1.02,.84,2.02,.97,3.08,.05,.38-.77,.89-2.14,2.38Zm-2.5-27.14q6.19-1.82,6.24,5.76c-1.79-1.65-3.57-3.3-6.24-5.76Zm7.21-6.86l.5-.29,.22,.84-.72-.55Zm2.83,38.25c-.02,.1-.48,.08-.74,.12-.04-1.26-.08-2.53-.12-3.79,.5,.05,1,.09,1.5,.14-.2,1.18-.39,2.36-.64,3.53Zm5.34-14.5l-.38-.58,.74-.03-.36,.61Zm4.58-21.94c-.34-.05-.91,0-.99-.16-.31-.61-.47-1.28-.68-1.92,.6,.35,1.23,.66,1.76,1.09,.14,.11-.05,.65-.1,.98Zm9.42,5.31c-.08-.05,.05-.46,.08-.71,.28,.15,.55,.29,.83,.44,.12,.29,.24,.58,.35,.87-.42-.19-.87-.34-1.26-.59Z" name="Layer %{number}" zoom="1" data-layer-id="8483979606236" style="fill: rgb(183, 29, 29); fill-opacity: 1;"></path><path class="cls-1" d="M1057.07,540.34c.06-1.77-.34-3.58-1.27-5.24-3.84-6.8-7.95-13.43-12.32-19.87-2.03,1.99-4.12,4.04-6.87,6.73-1.69-2.86-3.02-5.11-5.41-9.15,4.35-.15,7.47-.25,10.37-.35-19.21-27.65-43.17-51.76-70.71-71.11-4.78-3.36-11.42-1.95-14.39,3.09l-24.09,40.79c.24-.07,.49-.13,.7-.22,.07,.64,.39,1.44,.15,1.86-.28,.5-1.03,.68-1.57,.99-.04-.36-.13-.74-.18-1.11l-11.18,18.93c.79-.02,1.58,.14,2.37,.2-.25,.7-.5,1.41-.89,2.49-.89-.21-1.79-.43-2.7-.64l-51.4,87.03c2.96,6.65,5.76,13.36,8.14,20.21,.91-.23,2.01-.54,2.05-.41,.51,1.56,.75,3.24,1.07,4.88-.49,.18-.98,.36-1.48,.54,1.2,3.84,2.27,7.72,3.14,11.65,.09,.41,.17,.83,.25,1.24l32.46-15.96c.3-.91,.58-1.75,.85-2.57-.05-.03-.08-.06-.13-.09-.03-.12-.06-.24-.08-.35-.44-.23-.88-.45-1.31-.68,.31-.32,.62-.64,.93-.97,.13,.55,.26,1.09,.39,1.64,.1,.05,.2,.1,.3,.16-.03,.09-.06,.19-.09,.29,.74,.46,1.29,.9,1.72,1.31l29.17-14.34c-.21-1.22-.41-2.44-.61-3.65,.79,1.03,1.49,1.99,2.13,2.91l16.67-8.2c-.01-.47-.03-.93-.04-1.4,.55,.2,1.1,.4,1.66,.61l17.46-8.58c-.16-.24-.34-.49-.29-.65,.19-.61,.56-1.15,.86-1.71,.19,.29,.6,.68,.54,.85-.16,.45-.41,.87-.66,1.28l27.37-13.46c-7.75-8.42-7.41-10.21-1.4-17.52,5.58,8.8,6.68,10.54,5.29,15.61l37.46-18.42c3.16-1.56,5.12-4.55,5.52-7.79l-.43-.62c.16-.08,.33-.16,.49-.24Zm-184.69,53.21c.34-.5,1.05-.69,1.6-1.01,.15,.67,.59,1.72,.38,1.92-.52,.5-1.34,.61-2.04,.87,0-.61-.2-1.39,.06-1.77Zm4.05,8.07c-1.68-1.55-3.37-3.09-5.05-4.64,.37-.48,.74-.95,1.11-1.43,1.81,1.38,3.63,2.76,5.44,4.14-.5,.64-1,1.28-1.51,1.93Zm5.12-7.63c.42,0,.83,.01,1.25,.02,.02,1.51,.03,3.02,.05,4.54-.47,0-.94,0-1.42-.01,.04-1.51,.08-3.03,.12-4.54Zm4.2,27.54l.15-.68,.58,.51-.72,.17Zm-3-6.06c1.72-5.17,2.57-7.75,3.68-11.06,3.27,4.66,1.27,7.08-3.68,11.06Zm13.72-48.97l-.7-.97c-.24-.09-.48-.18-.72-.27,.04-.17,.08-.34,.12-.51-.35-.42-.7-.84-1.05-1.26,.45,0,.9,0,1.35,0-.1,.42-.2,.84-.31,1.26,.08,.09,.15,.18,.23,.27,.12,.17,.24,.33,.36,.5,.38,.14,.76,.29,1.14,.43-.15,.18-.29,.36-.44,.54Zm4.74,36.26c-.02-3.61-.04-5.88-.05-8.14,.6,.06,1.19,.12,1.78,.18-.48,2.19-.96,4.39-1.73,7.96Zm8.92-41.22c-.1-.59-.26-1.17-.25-1.76,0-.19,.47-.36,.73-.54,.12,.62,.23,1.25,.35,1.87-.28,.14-.55,.28-.83,.43Zm3.33,46.89l.18-.74,.51,.55-.69,.19Zm51.24-136.99c-.78,1.27-1.67,2.46-2.53,3.66-.43-.36-.86-.71-1.29-1.07,.78-1.31,1.57-2.62,2.35-3.93,.51,.47,1.5,1.3,1.47,1.34Zm-.82,16.73c.04,.13-.47,.71-.66,.68-.42-.08-.8-.43-1.2-.67,.37-.46,.73-.92,1.1-1.38,.27,.45,.6,.88,.76,1.37Zm-2.28-26.31s.83,.45,.81,.49c-.42,1.16-.89,2.29-1.35,3.42-.46-.3-.92-.6-1.39-.9,.63-1.02,1.25-2.04,1.93-3.02Zm-27.85,77.08c.42,.17,.85,.33,1.27,.5-.13,1.16,0,2.5-.48,3.43-.43,.81-1.57,1.14-2.39,1.68-.35-.5-.7-1.01-1.06-1.51,.88-1.37,1.77-2.73,2.65-4.1Zm-10.16,20.49c.11,1.22,.21,2.44,.32,3.65-.37-.02-1.05-.03-1.06-.08-.21-1.2-.35-2.4-.5-3.6,.41,0,.83,.01,1.24,.02Zm-6.37-33.06c.11,.06,.22,.13,.32,.19,.87-.46,1.75-.92,2.62-1.39,.13,1.05,.26,2.09,.39,3.14-1.01-.58-2.01-1.17-3.02-1.75-.12,.06-.24,.13-.36,.19-.35-.14-.71-.29-1.07-.4-.33-.1-.68-.16-1.02-.24,.71,.09,1.41,.18,2.12,.27Zm3.01,85.51c-.37-.46-1.06-.95-1.03-1.38,.04-.67,.57-1.31,1.04-2.25,.35,.66,.9,1.22,.87,1.72-.05,.66-.56,1.28-.87,1.91Zm7-8.92c-.32-.08-.65-.16-.97-.23-.14-.59-.29-1.18-.43-1.77,.32,.07,.87,.06,.94,.22,.2,.47,.29,.97,.4,1.47l.13-.5,.61,.58-.69,.13s.01,.07,.02,.1Zm6.95-3.71c.33-2.9,.66-5.81,1.17-10.3,.64,4.58,1.06,7.62,1.48,10.66-.88-.12-1.77-.24-2.65-.36Zm-15.56-10.39c-6-2-1-10,.65-13.76l4.85-3.6c4.51-1.65,9.51-1.65,13.51,1.35,1,1,1,4,1,6-3,9-12,13-20,10Zm16.82-40.93c1.38-2.82,2.76-5.64,4.58-9.34q1.19,6.45-4.58,9.34Zm.14-20.6c-.73-.37-1.47-.75-2.2-1.12,1.65-4.33,3.3-8.66,4.95-12.99,.83,.41,1.67,.83,2.5,1.24-1.75,4.29-3.5,8.58-5.25,12.87Zm5.44-30.6c.73-1.1,1.54-2.32,2.35-3.54l-.24,.1c.11-.94,.22-1.89,.33-2.83h0c.08,.06,.16,.12,.25,.18,1.5-1.37,3.01-2.74,6.04-5.5-.75,6.55-1.24,10.89-1.82,15.94-2.34-1.47-4.57-2.87-6.92-4.34Zm6.82,78.26c.11-.33,.23-.67,.34-1,.18,.15,.36,.29,.54,.44-.29,.19-.59,.38-.88,.56Zm1.55-25.62c-.12-2.39-.24-4.77-.36-7.16,.26-.04,.52-.08,.77-.11,.63,2.29,1.26,4.57,1.89,6.86-.77,.14-1.53,.27-2.3,.41Zm11.22-6.99l-.23-.68,.21-.37,.07,.46-.05,.59Zm2.22,35.78c-.22-2.65-.45-5.31-.67-7.96,.67-.04,1.34-.08,2.01-.11,0,2.67,.01,5.34,.02,8.01-.45,.02-.9,.04-1.35,.07Zm.78-68.3c-7,0-9-7-7.64-12.59l-.66-5.6c3.3-3.81,10.3-3.81,12.3,.19,1,2.5,2,4.99,2.39,7.45,.61,3.55-.39,10.55-6.39,10.55Zm6.63,54.55c-.53-.33-1.06-.66-1.59-.98,.6-1.51,1.2-3.01,1.8-4.52,.76,.46,1.53,.92,2.29,1.37-.83,1.38-1.67,2.75-2.5,4.13Zm6.48-83.47c-1.1-1.34-2.2-2.68-3.3-4.03,.16-.12,.32-.24,.48-.35,1.1,1.34,2.19,2.68,3.29,4.02-.16,.12-.32,.24-.48,.36Zm1.83,20.67c-.17-.71-.41-1.41-.46-2.13-.01-.2,.51-.45,.79-.67,.14,.68,.37,1.35,.39,2.04,0,.25-.47,.51-.72,.77Zm28.08-14c-.06,1.55-.12,3.09-.18,4.64-.44-.03-1.26,0-1.27-.1-.21-1.51-.32-3.03-.45-4.56,.63,0,1.27,.01,1.9,.02Zm-17.55,65.3c-.11,.1-1.4-.99-1.33-1.24,.26-.94,.87-1.76,1.36-2.66,.88,.72,1.41,1.16,1.95,1.6-.64,.79-1.24,1.65-1.99,2.3Zm9.25,2.63c.37,.31,.78,.59,1.1,.94,.14,.15,.11,.44,.14,.57-.37-.46-.81-.98-1.24-1.51Zm8.28-9.69c-5,6-10-2-11.35-7.3l.09,.19c5.26-5.89,16.26,.11,11.26,7.11Zm1.51-24.11c-.02,.08-.03,.16-.04,.24-.03,.01-.06,.02-.09,.03-.23,.56-.46,1.13-.7,1.69-.28-.39-.57-.79-.85-1.18,.52-.17,1.03-.34,1.55-.51,.01-.03,.03-.07,.04-.1,.03-.06,.06-.11,.09-.17,.36-1.98,.73-3.97,1.09-5.95,.56,.3,1.11,.61,1.67,.91-.92,1.68-1.84,3.36-2.76,5.04Zm8.44,25.8c-.89-.16-1.77-.33-2.66-.49,.53-2.94,1.05-5.88,1.81-10.12,4.7,4.91,.76,7.57,.85,10.61Zm3.1,8.72c.12-.35,.17-.77,.38-1.04,.12-.16,.48-.11,.73-.16,.08,.35,.15,.71,.23,1.06-.44,.04-.89,.09-1.33,.13Zm10.79-9.75l-.13-.87,.63,.19-.5,.68Zm22.87-.9c-.43,.7-1.22,1.12-1.86,1.66-.32-.51-.64-1.01-1.14-1.79,.84-.58,1.61-1.12,2.39-1.65,.23,.61,.8,1.49,.61,1.79Z" name="Layer %{number}" zoom="1" data-layer-id="7646866406236" style="fill: rgb(183, 29, 29); fill-opacity: 1;"></path><path class="cls-1" d="M1092.13,662.3c-.6-.32-.95-1.11-.82-2.75,.02-.33,.28-.64,.65-.95-1.13-20.08-4.35-39.62-9.44-58.39-.21,1.8-.43,3.77-.69,6.07-4.1-.27-7.99-.53-11.62-.77-.95-8.13-1.72-14.72-2.49-21.32,.64-.16,1.28-.32,1.92-.48,1.63,6.67,3.25,13.34,4.83,19.83,2.15-2.24,4.53-4.72,6.96-7.25-2.79-9.74-6.09-19.27-9.86-28.55-.56-1.37-1.39-2.55-2.39-3.49,.16,1,.31,1.99,.47,2.99-.68,.13-1.36,.26-2.05,.39-.28-1.69-.55-3.37-.83-5.06-2.69-1.34-5.96-1.46-8.88-.02l-86.27,42.41c-.62,5.43-1.14,9.98-1.65,14.53-2.67-4.8-3.98-9.36-.07-13.68l-19.95,9.81c-.46,1.18-1.07,2.4-1.86,3.71-.15-.88-.29-1.74-.43-2.58l-34.86,17.14c.09,.36,.19,.72,.28,1.08-.91,.17-1.81,.33-2.72,.5-.01-.12-.02-.24-.04-.36l-6.43,3.16c.19,.55,.36,1.2,.49,1.99,.32,2-.85,4.28-1.65,7.84-1.51-2.98-2.68-5.29-3.76-7.41l-1.68,.82s-.03,.09-.04,.14c0-.04,.01-.09,.02-.13l-14.31,7.03c.5,8.86-.23,17.76-2.55,26.21h36.19c.01-.49,.02-.95,.03-1.4,.51,.46,1.02,.93,1.52,1.4h164.07c5.67,0,10.2-4.72,10-10.39-.02-.69-.07-1.38-.1-2.07Zm-205.18,1.57c-.06,.28-.12,.56-.18,.84-.1,.04-.22,.07-.32,.1-.26,1.36-.53,2.72-.79,4.08-.36,.04-.72,.07-1.09,.11-.08-1.11-.49-2.36-.14-3.26,.21-.53,1.22-.68,2.02-.93,.03-.14,.05-.28,.08-.42,.14-.17,.28-.35,.42-.52,.25-1.18,.5-2.37,.74-3.55,.47,.28,.95,.56,1.42,.84-.72,.9-1.44,1.81-2.16,2.71Zm5.48-9.58c-.79-.2-1.58-.4-2.37-.6,.39-1.71,.79-3.42,1.18-5.13,.6,.1,1.21,.19,1.81,.29-.21,1.81-.41,3.63-.62,5.44Zm12.06,6.05c-.03,.2-1.17,.17-1.8,.25,.23-2.33,.45-4.66,.72-6.98,.03-.23,.38-.41,.59-.61,.35,.59,1,1.18,1,1.77,0,1.86-.21,3.73-.5,5.56Zm42.64-34.69c.17,1.35,.35,2.7,.52,4.05-.75,0-1.5-.01-2.25-.02,.58-1.34,1.15-2.69,1.73-4.03Zm-6.94,.6c-.37,3.29-.75,6.58-1.12,9.87-.34-.04-.68-.08-1.02-.11-.14-3.28-.28-6.56-.42-9.85,.85,.03,1.7,.06,2.56,.09Zm-15.5,25.68c-.13,1.11-.25,2.22-.39,3.46-4.24-4.1-2.18-6.36,1.16-10.17-.2,1.79-.37,3.26-.53,4.63,.94,1.42,1.88,2.84,2.83,4.25-.27,.18-.55,.37-.82,.55-.75-.91-1.49-1.82-2.24-2.73Zm2.79,20.33l-.36-.77,.73,.52-.36,.24Zm3.01-34.45c-.29-.11-.58-.21-.87-.32-.11-.29-.22-.58-.33-.87,.4,.1,.84,.15,1.19,.35,.11,.06,0,.55,0,.84Zm13.76,25.51c.02-.73,.04-1.46,.07-2.19-1.2,1.05-3.86,2.73-5.7,2.73-5-1-2-7-3.23-10.3l.07-3.24c4.52-2.19,7.78,.6,9.06,4.2,.18-5.91,.36-11.81,.54-17.72,.94,.07,1.87,.13,2.81,.2,2.36,9.25,2.05,18.14-3.62,26.31Zm115.38-96.67c.06-.25,.13-.5,.19-.74l.81-.05-.61,.37-.39,.43c-.19,.75-.38,1.51-.58,2.26-.29-.23-.57-.45-.86-.68,.48-.53,.96-1.06,1.44-1.58Zm-6.11,25.26c.54,.09,1.08,.19,1.62,.28-.43,2.61-.87,5.23-1.3,7.84-.41-.06-.81-.11-1.22-.17,.3-2.65,.6-5.31,.91-7.96Zm.55,15.46c1.75,2.83,3.25,5.23,5.94,9.57-8.18-.9-9.04-3.79-5.94-9.57Zm-6.14,4.82c-.25,.25-.59,.76-.73,.7-.57-.26-1.07-.68-1.54-1.01,.24-.23,.57-.72,.72-.66,.55,.22,1.04,.63,1.55,.97Zm-3.01-42.73c.44,4.22,.88,8.45,1.33,12.67-.79,.14-1.58,.28-2.38,.42-.59-4.07-1.18-8.14-1.78-12.21,.94-.29,1.88-.58,2.83-.87Zm-1.98,56.46c.06,1.24,.13,2.48,.19,3.72,.12,.35,.23,.69,.35,1.04,.15,.05,.31,.11,.46,.16,.99-.08,1.98-.16,2.97-.24-.03,.41-.07,.82-.1,1.23-.96-.33-1.91-.66-2.87-.99-.25,.02-.5,.04-.75,.06-.02-.42-.04-.84-.06-1.25-.4-1.17-.79-2.33-1.19-3.5,.33-.07,.66-.15,.99-.22Zm-14.9-17.28c.13,.27,.4,.58,.34,.79-.05,.21-.43,.32-.66,.48-.13-.27-.4-.58-.34-.8,.05-.21,.43-.32,.66-.48Zm-18.28-10.08c-.02,.62-.05,1.24-.07,1.86,.08,.09,.16,.18,.24,.27l.32,.52-.58-.35c0-.14,.01-.29,.02-.43-.38-.41-.75-.83-1.13-1.24,.4-.21,.8-.41,1.2-.61Zm-18.52,10.03c.71,.6,1.19,1,1.66,1.4-.65,.77-1.26,1.59-2,2.23-.11,.09-1.25-.95-1.2-1.06,.42-.91,1-1.72,1.54-2.58Zm-33.68,31.64c.33-.89,.99-1.63,1.53-2.44,.85,.78,1.33,1.22,1.81,1.66-.79,.76-1.57,1.52-2.36,2.27-.35-.51-1.1-1.2-.99-1.49Zm3.84,19.31c-.25,0-.82-1.66-.7-1.76,.74-.64,1.64-1.04,2.49-1.53,.22,.71,.43,1.43,.79,2.6-.88,.27-1.73,.69-2.57,.69Zm16.67-1.87l.38-1.04,.18,1.12-.56-.08Zm2.58-11.28c-1.61,2.04-3.85,3.45-5.91,5.24-.92-.55-1.83-1.08-2.72-1.64-7.42-4.65-7.86-7.01-2.67-14.39,3.06-4.36,8.2-6.34,10.89-4.22,3.2,2.52,3.6,10.97,.41,15.01Zm8.93,12.22c-.43,.14-1.64-1.15-1.76-1.94-.1-.66,.87-1.52,1.57-2.62,.98,1.04,1.61,1.72,2.25,2.4-.68,.77-1.26,1.89-2.06,2.15Zm-.68-16.36c.16-2.92,.32-5.84,.55-9.93,6.1,4.12,3.86,7.3-.55,9.93Zm6.97-44.61l.4-.5,.11,.66-.52-.16Zm2.92,17.99c-.21-.3-.62-.64-.59-.9,.08-.66,.37-1.29,.6-2.03,.37,.44,1.05,.93,.99,1.23-.12,.62-.64,1.14-1,1.69Zm4.06,53.2q-.45-7.15,3.2-11.3c1.52,2.61,2.95,5.07,4.78,8.21-2.81,1.09-5.01,1.94-7.98,3.09Zm10.15-16.75c-.23-.86-.47-1.73-.7-2.59,.58-.02,1.36-.29,1.68,.02,.42,.41,.48,1.29,.69,1.97-.56,.2-1.11,.4-1.67,.6Zm2.83-37.51l.46-1.02,.18,1.11-.63-.1Zm10.81,49.91c-.32,.94-1.71,1.43-2.62,2.12-.56-.67-1.12-1.34-1.69-2.01,1.2-1.72,2.4-3.44,4.66-6.68-.12,3.38,.14,5.13-.35,6.57Zm11.09-32.52c-3.05,.94-7.33,1.16-10.84,.14-3.51-1.02-6.26-3.27-6.26-7.27,.72-2.16,.93-4.84,2.11-6.55-.39-.51-.75-1.02-.83-1.59-.11-.74,.73-1.66,1.4-3.01,.79,1.33,1.6,2.19,1.83,3.03,3.98-.88,9.59-.68,11.68,4.13,3.26,3.54,4.62,8.36,.93,11.11Zm5.15,34.75c-.18-.29-.44-.56-.51-.88-.03-.18,.27-.44,.42-.66,.22,.04,.44,.09,.66,.13-.19,.47-.38,.94-.57,1.41Zm11.16-3.58c-4.39-1.7-4.05-4.32-.08-8.61,.72,.32,1.45,.63,2.17,.95-.69,2.54-1.38,5.07-2.09,7.66Zm.35-13.29c-4.56,1.54-9.05,1.21-13.25-2.7,1.3-1.49,2.35-2.7,4.01-4.59-2.27-.83-4.11-1.5-6.13-2.24,.73-1.37,.99-2.45,1.4-2.53,5.87-1.17,11.53-.81,15.71,4.67,2.3,3.01,1.92,6.15-1.75,7.39Zm5.91,19.19c-.17-.28-.42-.55-.46-.86-.03-.19,.26-.43,.4-.65,.21,.04,.41,.09,.62,.13-.18,.46-.37,.92-.55,1.38Zm2.91-38.2c-.32-.04-.63-.09-.95-.14,.16-1.37,.31-2.74,.47-4.11,.32,.05,.63,.09,.95,.14-.16,1.37-.31,2.74-.47,4.11Zm1.33-57.71l.15-.69,.47,.49-.62,.2Zm3.26,66.42c1.47-6.45,2.48-10.92,3.53-15.52,3.92,3.62,2.85,9.82-3.53,15.52Zm8.01,33.71c-.56-.1-1.12-.21-1.69-.31,.32-1.94,.64-3.88,.97-5.82,.46,.09,.92,.18,1.39,.27l-.67,5.87Zm2.35-17.98c-.24,.7-1.36,1.02-2.09,1.51-.42-.84-1.24-1.74-1.15-2.51,.11-1,.95-1.9,2.14-4.03,.76,3.22,1.35,4.31,1.1,5.03Zm7.77-2.82c.18-2.44,.35-4.87,.53-7.31,.42,0,.85,0,1.27,0,.13,2.41,.27,4.83,.4,7.24-.73,.02-1.46,.05-2.2,.07Z" name="Layer %{number}" zoom="1" data-layer-id="9213842706236" style="fill: rgb(183, 29, 29); fill-opacity: 1;"></path></svg></g><g transform="rotate(0 0 0)"><svg viewBoxSize="575" data-root-id="5553540706236" xmlns="http://www.w3.org/2000/svg" y="378.9061500422804" viewBox="4.320000171661377 27.559999465942383 292.30999755859375 51.970001220703125" x="141.34500122070312" height="51.970001220703125" width="292.30999755859375" fontUrl="https://fonts.gstatic.com/s/righteous/v17/1cXxaUPXBpj2rGoU7C9mj3uEicG01A.ttf" zoom="1" editorType="buyer" data-layer-role="brandName" style="position: absolute; top: 378.906px; width: 292.31px; height: 51.97px; left: 141.345px;"><g data-horizontal-grow="center" zoom="1" root="[object Object]" style="fill: rgb(255, 255, 255); fill-opacity: 1;"><path d="M4.32 79.53L4.32 27.56L11.87 27.56L11.87 79.53L4.32 79.53ZM8.55 50.72L23.83 50.72L23.83 56.62L8.55 56.62L8.55 50.72ZM8.30 27.56L26.98 27.56L26.98 33.62L8.30 33.62L8.30 27.56ZM55.04 66.25L47.65 66.25L47.65 47.40Q47.65 45.83 47.20 45.37Q46.74 44.91 45.16 44.91L45.16 44.91L42.67 44.91L42.67 39.02L47.32 39.02Q51.39 39.02 53.22 40.89Q55.04 42.75 55.04 46.41L55.04 46.41L55.04 66.25ZM47.65 71.15L47.65 71.15L47.65 62.76L55.04 62.76L55.04 72.23Q55.04 75.80 53.22 77.66Q51.39 79.53 47.32 79.53L47.32 79.53L42.26 79.53L42.26 73.64L45.16 73.64Q46.74 73.64 47.20 73.14Q47.65 72.64 47.65 71.15ZM38.19 47.40L38.19 47.40L38.19 66.33L30.80 66.33L30.80 46.41Q30.80 42.75 32.63 40.89Q34.45 39.02 38.44 39.02L38.44 39.02L43.17 39.02L43.17 44.91L40.68 44.91Q39.19 44.91 38.69 45.37Q38.19 45.83 38.19 47.40ZM30.80 62.26L38.19 62.26L38.19 71.15Q38.19 72.64 38.69 73.14Q39.19 73.64 40.68 73.64L40.68 73.64L42.92 73.64L42.92 79.53L38.44 79.53Q34.45 79.53 32.63 77.66Q30.80 75.80 30.80 72.23L30.80 72.23L30.80 62.26ZM75.96 38.94L77.62 38.94L77.62 45.49L74.63 45.49Q69.40 45.49 69.40 51.55L69.40 51.55L69.40 53.30L69.07 53.30L69.07 46.24Q69.07 44.50 69.86 42.80Q70.65 41.09 72.19 40.02Q73.72 38.94 75.96 38.94L75.96 38.94ZM69.40 46.57L69.40 79.53L61.93 79.53L61.93 39.02L69.40 39.02L69.40 46.57L69.40 46.57ZM89.16 44.58L89.16 79.53L81.69 79.53L81.69 39.02L89.16 39.02L89.16 44.08L89.16 44.58ZM104.77 46.41L104.77 79.53L97.30 79.53L97.30 47.49Q97.30 45.99 96.80 45.54Q96.30 45.08 94.81 45.08L94.81 45.08L91.90 45.08Q90.49 45.08 89.83 45.74Q89.16 46.41 89.16 47.99L89.16 47.99L89.16 50.64L88.83 50.64L88.83 44.66Q88.83 41.68 90.32 40.35Q91.82 39.02 94.31 39.02L94.31 39.02L97.30 39.02Q101.12 39.02 102.94 40.89Q104.77 42.75 104.77 46.41L104.77 46.41ZM135.82 66.25L128.43 66.25L128.43 47.40Q128.43 45.83 127.97 45.37Q127.52 44.91 125.94 44.91L125.94 44.91L123.45 44.91L123.45 39.02L128.10 39.02Q132.17 39.02 133.99 40.89Q135.82 42.75 135.82 46.41L135.82 46.41L135.82 66.25ZM128.43 71.15L128.43 71.15L128.43 62.76L135.82 62.76L135.82 72.23Q135.82 75.80 133.99 77.66Q132.17 79.53 128.10 79.53L128.10 79.53L123.03 79.53L123.03 73.64L125.94 73.64Q127.52 73.64 127.97 73.14Q128.43 72.64 128.43 71.15ZM118.97 47.40L118.97 47.40L118.97 66.33L111.58 66.33L111.58 46.41Q111.58 42.75 113.40 40.89Q115.23 39.02 119.22 39.02L119.22 39.02L123.95 39.02L123.95 44.91L121.46 44.91Q119.96 44.91 119.46 45.37Q118.97 45.83 118.97 47.40ZM111.58 62.26L118.97 62.26L118.97 71.15Q118.97 72.64 119.46 73.14Q119.96 73.64 121.46 73.64L121.46 73.64L123.70 73.64L123.70 79.53L119.22 79.53Q115.23 79.53 113.40 77.66Q111.58 75.80 111.58 72.23L111.58 72.23L111.58 62.26ZM172.68 50.14L172.68 50.14L172.68 36.03Q172.68 34.54 172.22 34.08Q171.77 33.62 170.19 33.62L170.19 33.62L156.41 33.62L156.41 27.56L172.43 27.56Q176.50 27.56 178.37 29.43Q180.23 31.30 180.23 34.87L180.23 34.87L180.23 51.14Q180.23 54.79 178.37 56.66Q176.50 58.53 172.43 58.53L172.43 58.53L159.06 58.53L159.06 52.55L170.19 52.55Q171.77 52.55 172.22 52.05Q172.68 51.55 172.68 50.14ZM155.41 79.53L155.41 27.56L162.88 27.56L162.88 79.53L155.41 79.53ZM174.76 79.53L165.87 55.54L173.51 55.54L182.89 79.53L174.76 79.53ZM211.45 66.25L204.06 66.25L204.06 47.40Q204.06 45.83 203.60 45.37Q203.15 44.91 201.57 44.91L201.57 44.91L199.08 44.91L199.08 39.02L203.73 39.02Q207.80 39.02 209.62 40.89Q211.45 42.75 211.45 46.41L211.45 46.41L211.45 66.25ZM204.06 71.15L204.06 71.15L204.06 62.76L211.45 62.76L211.45 72.23Q211.45 75.80 209.62 77.66Q207.80 79.53 203.73 79.53L203.73 79.53L198.66 79.53L198.66 73.64L201.57 73.64Q203.15 73.64 203.60 73.14Q204.06 72.64 204.06 71.15ZM194.60 47.40L194.60 47.40L194.60 66.33L187.21 66.33L187.21 46.41Q187.21 42.75 189.03 40.89Q190.86 39.02 194.85 39.02L194.85 39.02L199.58 39.02L199.58 44.91L197.09 44.91Q195.59 44.91 195.09 45.37Q194.60 45.83 194.60 47.40ZM187.21 62.26L194.60 62.26L194.60 71.15Q194.60 72.64 195.09 73.14Q195.59 73.64 197.09 73.64L197.09 73.64L199.33 73.64L199.33 79.53L194.85 79.53Q190.86 79.53 189.03 77.66Q187.21 75.80 187.21 72.23L187.21 72.23L187.21 62.26ZM231.87 71.40L231.87 71.40L231.87 64.67Q231.87 63.18 231.42 62.72Q230.96 62.26 229.38 62.26L229.38 62.26L225.15 62.26Q221.08 62.26 219.25 60.40Q217.43 58.53 217.43 54.96L217.43 54.96L217.43 46.41Q217.43 42.75 219.29 40.89Q221.16 39.02 225.15 39.02L225.15 39.02L231.21 39.02Q235.28 39.02 237.14 40.89Q239.01 42.75 239.01 46.41L239.01 46.41L239.01 50.31L231.71 50.31L231.71 47.15Q231.71 45.66 231.25 45.20Q230.79 44.75 229.22 44.75L229.22 44.75L227.22 44.75Q225.73 44.75 225.23 45.20Q224.73 45.66 224.73 47.15L224.73 47.15L224.73 54.13Q224.73 55.62 225.23 56.08Q225.73 56.54 227.22 56.54L227.22 56.54L231.54 56.54Q235.53 56.54 237.35 58.40Q239.18 60.27 239.18 63.92L239.18 63.92L239.18 72.23Q239.18 75.80 237.31 77.66Q235.44 79.53 231.46 79.53L231.46 79.53L225.31 79.53Q221.33 79.53 219.46 77.66Q217.59 75.80 217.59 72.23L217.59 72.23L217.59 68.24L224.98 68.24L224.98 71.40Q224.98 72.81 225.48 73.31Q225.98 73.80 227.39 73.80L227.39 73.80L229.38 73.80Q230.96 73.80 231.42 73.31Q231.87 72.81 231.87 71.40ZM259.10 71.40L259.10 71.40L259.10 64.67Q259.10 63.18 258.65 62.72Q258.19 62.26 256.61 62.26L256.61 62.26L252.38 62.26Q248.31 62.26 246.48 60.40Q244.66 58.53 244.66 54.96L244.66 54.96L244.66 46.41Q244.66 42.75 246.53 40.89Q248.39 39.02 252.38 39.02L252.38 39.02L258.44 39.02Q262.51 39.02 264.37 40.89Q266.24 42.75 266.24 46.41L266.24 46.41L266.24 50.31L258.94 50.31L258.94 47.15Q258.94 45.66 258.48 45.20Q258.02 44.75 256.45 44.75L256.45 44.75L254.45 44.75Q252.96 44.75 252.46 45.20Q251.96 45.66 251.96 47.15L251.96 47.15L251.96 54.13Q251.96 55.62 252.46 56.08Q252.96 56.54 254.45 56.54L254.45 56.54L258.77 56.54Q262.76 56.54 264.58 58.40Q266.41 60.27 266.41 63.92L266.41 63.92L266.41 72.23Q266.41 75.80 264.54 77.66Q262.67 79.53 258.69 79.53L258.69 79.53L252.54 79.53Q248.56 79.53 246.69 77.66Q244.82 75.80 244.82 72.23L244.82 72.23L244.82 68.24L252.21 68.24L252.21 71.40Q252.21 72.81 252.71 73.31Q253.21 73.80 254.62 73.80L254.62 73.80L256.61 73.80Q258.19 73.80 258.65 73.31Q259.10 72.81 259.10 71.40ZM296.63 66.25L289.24 66.25L289.24 47.40Q289.24 45.83 288.78 45.37Q288.33 44.91 286.75 44.91L286.75 44.91L284.26 44.91L284.26 39.02L288.91 39.02Q292.97 39.02 294.80 40.89Q296.63 42.75 296.63 46.41L296.63 46.41L296.63 66.25ZM289.24 71.15L289.24 71.15L289.24 62.76L296.63 62.76L296.63 72.23Q296.63 75.80 294.80 77.66Q292.97 79.53 288.91 79.53L288.91 79.53L283.84 79.53L283.84 73.64L286.75 73.64Q288.33 73.64 288.78 73.14Q289.24 72.64 289.24 71.15ZM279.77 47.40L279.77 47.40L279.77 66.33L272.39 66.33L272.39 46.41Q272.39 42.75 274.21 40.89Q276.04 39.02 280.02 39.02L280.02 39.02L284.76 39.02L284.76 44.91L282.26 44.91Q280.77 44.91 280.27 45.37Q279.77 45.83 279.77 47.40ZM272.39 62.26L279.77 62.26L279.77 71.15Q279.77 72.64 280.27 73.14Q280.77 73.64 282.26 73.64L282.26 73.64L284.51 73.64L284.51 79.53L280.02 79.53Q276.04 79.53 274.21 77.66Q272.39 75.80 272.39 72.23L272.39 72.23L272.39 62.26Z" transform="translate(0, 0)"></path></g></svg></g></svg>